Ubuntu-BI.ufo
<glyph name="asterisk" format="2">
	<unicode hex="002A"/>
	<advance width="502"/>
	<outline>
		<contour>
			<point x="373" y="536" type="curve"/>
			<point x="386" y="571"/>
			<point x="406" y="633"/>
			<point x="406" y="668" type="curve" smooth="yes"/>
			<point x="406" y="693" type="line"/>
			<point x="276" y="693" type="line"/>
			<point x="276" y="668" type="line" smooth="yes"/>
			<point x="276" y="633"/>
			<point x="296" y="571"/>
			<point x="309" y="536" type="curve"/>
			<point x="281" y="559"/>
			<point x="227" y="598"/>
			<point x="194" y="608" type="curve" smooth="yes"/>
			<point x="170" y="616" type="line"/>
			<point x="130" y="492" type="line"/>
			<point x="154" y="484" type="line" smooth="yes"/>
			<point x="188" y="474"/>
			<point x="251" y="475"/>
			<point x="289" y="475" type="curve"/>
			<point x="258" y="454"/>
			<point x="206" y="417"/>
			<point x="185" y="388" type="curve" smooth="yes"/>
			<point x="169" y="367" type="line"/>
			<point x="275" y="292" type="line"/>
			<point x="290" y="312" type="line" smooth="yes"/>
			<point x="312" y="339"/>
			<point x="331" y="401"/>
			<point x="341" y="437" type="curve"/>
			<point x="351" y="401"/>
			<point x="370" y="339"/>
			<point x="392" y="312" type="curve" smooth="yes"/>
			<point x="407" y="292" type="line"/>
			<point x="513" y="367" type="line"/>
			<point x="497" y="388" type="line" smooth="yes"/>
			<point x="476" y="417"/>
			<point x="424" y="454"/>
			<point x="393" y="475" type="curve"/>
			<point x="431" y="475"/>
			<point x="494" y="474"/>
			<point x="528" y="484" type="curve" smooth="yes"/>
			<point x="552" y="492" type="line"/>
			<point x="512" y="616" type="line"/>
			<point x="488" y="608" type="line" smooth="yes"/>
			<point x="455" y="598"/>
			<point x="401" y="559"/>
		</contour>
	</outline>
</glyph>
<glyph name="hyphen" format="2">
	<unicode hex="002D"/>
	<advance width="343"/>
	<outline>
		<contour>
			<point x="73" y="231" type="line"/>
			<point x="363" y="231" type="line"/>
			<point x="396" y="366" type="line"/>
			<point x="106" y="366" type="line"/>
		</contour>
	</outline>
</glyph>
<glyph name="period" format="2">
	<unicode hex="002E"/>
	<advance width="252"/>
	<outline>
		<contour>
			<point x="160" y="171" type="curve" smooth="yes"/>
			<point x="109" y="171"/>
			<point x="60" y="129"/>
			<point x="60" y="68" type="curve" smooth="yes"/>
			<point x="60" y="13"/>
			<point x="95" y="-13"/>
			<point x="142" y="-13" type="curve" smooth="yes"/>
			<point x="193" y="-13"/>
			<point x="242" y="29"/>
			<point x="242" y="90" type="curve" smooth="yes"/>
			<point x="242" y="145"/>
			<point x="207" y="171"/>
		</contour>
	</outline>
</glyph>
<glyph name="slash" format="2">
	<unicode hex="002F"/>
	<advance width="436"/>
	<outline>
		<contour>
			<point x="621" y="783" type="line"/>
			<point x="470" y="783" type="line"/>
			<point x="-90" y="-185" type="line"/>
			<point x="62" y="-185" type="line"/>
		</contour>
	</outline>
</glyph>
<glyph name="zero" format="2">
	<unicode hex="0030"/>
	<advance width="568"/>
	<outline>
		<contour>
			<point x="298" y="114" type="qcurve"/>
			<point x="330" y="114"/>
			<point x="384" y="152"/>
			<point x="425" y="214"/>
			<point x="456" y="293"/>
			<point x="476" y="375"/>
			<point x="486" y="453"/>
			<point x="486" y="483" type="qcurve"/>
			<point x="486" y="534"/>
			<point x="455" y="582"/>
			<point x="423" y="582" type="qcurve"/>
			<point x="390" y="582"/>
			<point x="336" y="544"/>
			<point x="294" y="482"/>
			<point x="263" y="402"/>
			<point x="243" y="320"/>
			<point x="233" y="242"/>
			<point x="233" y="212" type="qcurve"/>
			<point x="233" y="160"/>
			<point x="265" y="114"/>
		</contour>
		<contour>
			<point x="275" y="-14" type="qcurve"/>
			<point x="226" y="-14"/>
			<point x="158" y="21"/>
			<point x="115" y="79"/>
			<point x="96" y="152"/>
			<point x="96" y="191" type="qcurve"/>
			<point x="96" y="305"/>
			<point x="147" y="495"/>
			<point x="238" y="633"/>
			<point x="366" y="709"/>
			<point x="444" y="709" type="qcurve"/>
			<point x="493" y="709"/>
			<point x="561" y="674"/>
			<point x="604" y="616"/>
			<point x="623" y="543"/>
			<point x="623" y="504" type="qcurve"/>
			<point x="623" y="390"/>
			<point x="572" y="200"/>
			<point x="481" y="62"/>
			<point x="353" y="-14"/>
		</contour>
	</outline>
</glyph>
<glyph name="one" format="2">
	<unicode hex="0031"/>
	<advance width="568"/>
	<outline>
		<contour>
			<point x="218" y="434" type="line"/>
			<point x="267" y="450"/>
			<point x="325" y="472"/>
			<point x="372" y="499" type="curve"/>
			<point x="252" y="0" type="line"/>
			<point x="401" y="0" type="line"/>
			<point x="568" y="693" type="line"/>
			<point x="464" y="693" type="line"/>
			<point x="392" y="632"/>
			<point x="285" y="581"/>
			<point x="200" y="549" type="curve"/>
		</contour>
	</outline>
</glyph>
<glyph name="six" format="2">
	<unicode hex="0036"/>
	<advance width="568"/>
	<outline>
		<contour>
			<point x="649" y="699" type="line"/>
			<point x="634" y="700"/>
			<point x="620" y="700"/>
			<point x="609" y="700" type="curve" smooth="yes"/>
			<point x="262" y="700"/>
			<point x="105" y="465"/>
			<point x="105" y="230" type="curve" smooth="yes"/>
			<point x="105" y="71"/>
			<point x="201" y="-14"/>
			<point x="325" y="-14" type="curve" smooth="yes"/>
			<point x="467" y="-14"/>
			<point x="588" y="81"/>
			<point x="588" y="253" type="curve" smooth="yes"/>
			<point x="588" y="377"/>
			<point x="508" y="439"/>
			<point x="409" y="439" type="curve" smooth="yes"/>
			<point x="369" y="439"/>
			<point x="319" y="431"/>
			<point x="284" y="412" type="curve"/>
			<point x="343" y="549"/>
			<point x="466" y="576"/>
			<point x="631" y="581" type="curve"/>
		</contour>
		<contour>
			<point x="446" y="243" type="curve" smooth="yes"/>
			<point x="446" y="159"/>
			<point x="401" y="110"/>
			<point x="337" y="110" type="curve" smooth="yes"/>
			<point x="276" y="110"/>
			<point x="247" y="163"/>
			<point x="247" y="227" type="curve" smooth="yes"/>
			<point x="247" y="254"/>
			<point x="251" y="280"/>
			<point x="260" y="305" type="curve"/>
			<point x="289" y="317"/>
			<point x="325" y="327"/>
			<point x="358" y="327" type="curve" smooth="yes"/>
			<point x="406" y="327"/>
			<point x="446" y="307"/>
		</contour>
	</outline>
</glyph>
<glyph name="B" format="2">
	<unicode hex="0042"/>
	<advance width="658"/>
	<outline>
		<contour>
			<point x="312" y="-9" type="curve" smooth="yes"/>
			<point x="568" y="-9"/>
			<point x="664" y="110"/>
			<point x="664" y="238" type="curve" smooth="yes"/>
			<point x="664" y="294"/>
			<point x="636" y="342"/>
			<point x="577" y="369" type="curve"/>
			<point x="678" y="414"/>
			<point x="698" y="486"/>
			<point x="698" y="545" type="curve" smooth="yes"/>
			<point x="698" y="630"/>
			<point x="629" y="701"/>
			<point x="469" y="701" type="curve" smooth="yes"/>
			<point x="400" y="701"/>
			<point x="311" y="697"/>
			<point x="235" y="682" type="curve"/>
			<point x="75" y="12" type="line"/>
			<point x="143" y="-3"/>
			<point x="232" y="-9"/>
		</contour>
		<contour>
			<point x="406" y="303" type="line"/>
			<point x="479" y="303"/>
			<point x="507" y="262"/>
			<point x="507" y="225" type="curve" smooth="yes"/>
			<point x="507" y="137"/>
			<point x="420" y="117"/>
			<point x="341" y="117" type="curve" smooth="yes"/>
			<point x="313" y="117"/>
			<point x="276" y="119"/>
			<point x="255" y="123" type="curve"/>
			<point x="298" y="303" type="line"/>
		</contour>
		<contour>
			<point x="363" y="572" type="line"/>
			<point x="379" y="575"/>
			<point x="416" y="577"/>
			<point x="444" y="577" type="curve" smooth="yes"/>
			<point x="495" y="577"/>
			<point x="544" y="560"/>
			<point x="544" y="508" type="curve" smooth="yes"/>
			<point x="544" y="460"/>
			<point x="505" y="420"/>
			<point x="425" y="420" type="curve" smooth="yes"/>
			<point x="327" y="420" type="line"/>
		</contour>
	</outline>
</glyph>
<glyph name="C" format="2">
	<unicode hex="0043"/>
	<advance width="638"/>
	<outline>
		<contour>
			<point x="597" y="157" type="line"/>
			<point x="550" y="136"/>
			<point x="497" y="121"/>
			<point x="433" y="121" type="curve" smooth="yes"/>
			<point x="337" y="121"/>
			<point x="284" y="173"/>
			<point x="284" y="289" type="curve" smooth="yes"/>
			<point x="284" y="444"/>
			<point x="379" y="576"/>
			<point x="531" y="576" type="curve" smooth="yes"/>
			<point x="582" y="576"/>
			<point x="621" y="567"/>
			<point x="677" y="538" type="curve"/>
			<point x="733" y="659" type="line"/>
			<point x="666" y="696"/>
			<point x="605" y="709"/>
			<point x="541" y="709" type="curve" smooth="yes"/>
			<point x="273" y="709"/>
			<point x="123" y="488"/>
			<point x="123" y="280" type="curve" smooth="yes"/>
			<point x="123" y="99"/>
			<point x="235" y="-14"/>
			<point x="401" y="-14" type="curve" smooth="yes"/>
			<point x="497" y="-14"/>
			<point x="559" y="3"/>
			<point x="614" y="30" type="curve"/>
		</contour>
	</outline>
</glyph>
<glyph name="O" format="2">
	<unicode hex="004F"/>
	<advance width="757"/>
	<outline>
		<contour>
			<point x="500" y="575" type="qcurve"/>
			<point x="454" y="575"/>
			<point x="375" y="527"/>
			<point x="316" y="447"/>
			<point x="283" y="343"/>
			<point x="283" y="288" type="qcurve"/>
			<point x="283" y="213"/>
			<point x="346" y="120"/>
			<point x="417" y="120" type="qcurve"/>
			<point x="463" y="120"/>
			<point x="542" y="168"/>
			<point x="601" y="248"/>
			<point x="634" y="351"/>
			<point x="634" y="407" type="qcurve"/>
			<point x="634" y="482"/>
			<point x="571" y="575"/>
		</contour>
		<contour>
			<point x="401" y="-14" type="qcurve"/>
			<point x="340" y="-14"/>
			<point x="238" y="26"/>
			<point x="164" y="101"/>
			<point x="123" y="209"/>
			<point x="123" y="277" type="qcurve"/>
			<point x="123" y="355"/>
			<point x="177" y="509"/>
			<point x="278" y="632"/>
			<point x="424" y="709"/>
			<point x="516" y="709" type="qcurve"/>
			<point x="577" y="709"/>
			<point x="679" y="669"/>
			<point x="753" y="594"/>
			<point x="794" y="486"/>
			<point x="794" y="418" type="qcurve"/>
			<point x="794" y="340"/>
			<point x="741" y="185"/>
			<point x="640" y="62"/>
			<point x="494" y="-14"/>
		</contour>
	</outline>
</glyph>
<glyph name="P" format="2">
	<unicode hex="0050"/>
	<advance width="639"/>
	<outline>
		<contour>
			<point x="432" y="701" type="curve" smooth="yes"/>
			<point x="375" y="701"/>
			<point x="310" y="696"/>
			<point x="238" y="683" type="curve"/>
			<point x="75" y="0" type="line"/>
			<point x="230" y="0" type="line"/>
			<point x="286" y="232" type="line"/>
			<point x="325" y="232" type="line" smooth="yes"/>
			<point x="540" y="232"/>
			<point x="704" y="302"/>
			<point x="704" y="503" type="curve" smooth="yes"/>
			<point x="704" y="627"/>
			<point x="600" y="701"/>
		</contour>
		<contour>
			<point x="419" y="570" type="curve" smooth="yes"/>
			<point x="499" y="570"/>
			<point x="544" y="547"/>
			<point x="544" y="487" type="curve" smooth="yes"/>
			<point x="544" y="396"/>
			<point x="469" y="363"/>
			<point x="357" y="363" type="curve" smooth="yes"/>
			<point x="318" y="363" type="line"/>
			<point x="366" y="567" type="line"/>
			<point x="382" y="568"/>
			<point x="396" y="570"/>
		</contour>
	</outline>
</glyph>
<glyph name="Q" format="2">
	<unicode hex="0051"/>
	<advance width="756"/>
	<outline>
		<contour>
			<point x="656" y="-79" type="line"/>
			<point x="563" y="-74"/>
			<point x="479" y="-68"/>
			<point x="479" y="-9" type="curve" smooth="yes"/>
			<point x="479" y="-6" type="line"/>
			<point x="679" y="34"/>
			<point x="794" y="234"/>
			<point x="794" y="418" type="curve" smooth="yes"/>
			<point x="794" y="599"/>
			<point x="679" y="709"/>
			<point x="516" y="709" type="curve" smooth="yes"/>
			<point x="271" y="709"/>
			<point x="123" y="484"/>
			<point x="123" y="277" type="curve" smooth="yes"/>
			<point x="123" y="121"/>
			<point x="205" y="20"/>
			<point x="332" y="-7" type="curve"/>
			<point x="332" y="-14" type="line" smooth="yes"/>
			<point x="332" y="-118"/>
			<point x="400" y="-179"/>
			<point x="610" y="-187" type="curve"/>
		</contour>
		<contour>
			<point x="500" y="575" type="curve" smooth="yes"/>
			<point x="595" y="575"/>
			<point x="634" y="507"/>
			<point x="634" y="407" type="curve" smooth="yes"/>
			<point x="634" y="259"/>
			<point x="540" y="120"/>
			<point x="417" y="120" type="curve" smooth="yes"/>
			<point x="322" y="120"/>
			<point x="283" y="188"/>
			<point x="283" y="288" type="curve" smooth="yes"/>
			<point x="283" y="436"/>
			<point x="377" y="575"/>
		</contour>
	</outline>
</glyph>
<glyph name="X" format="2">
	<unicode hex="0058"/>
	<advance width="669"/>
	<outline>
		<contour>
			<point x="654" y="0" type="line"/>
			<point x="609" y="139"/>
			<point x="569" y="233"/>
			<point x="513" y="358" type="curve"/>
			<point x="602" y="457"/>
			<point x="702" y="584"/>
			<point x="779" y="693" type="curve"/>
			<point x="608" y="693" type="line"/>
			<point x="561" y="628"/>
			<point x="504" y="551"/>
			<point x="444" y="479" type="curve"/>
			<point x="361" y="693" type="line"/>
			<point x="189" y="693" type="line"/>
			<point x="330" y="377" type="line"/>
			<point x="15" y="0" type="line"/>
			<point x="193" y="0" type="line"/>
			<point x="394" y="245" type="line"/>
			<point x="429" y="171"/>
			<point x="450" y="114"/>
			<point x="487" y="0" type="curve"/>
		</contour>
	</outline>
</glyph>
<glyph name="bracketleft" format="2">
	<unicode hex="005B"/>
	<advance width="373"/>
	<outline>
		<contour>
			<point x="30" y="-185" type="line"/>
			<point x="300" y="-185" type="line"/>
			<point x="329" y="-66" type="line"/>
			<point x="200" y="-66" type="line"/>
			<point x="375" y="664" type="line"/>
			<point x="504" y="664" type="line"/>
			<point x="533" y="783" type="line"/>
			<point x="262" y="783" type="line"/>
		</contour>
	</outline>
</glyph>
<glyph name="backslash" format="2">
	<unicode hex="005C"/>
	<advance width="406"/>
	<outline>
		<contour>
			<point x="253" y="-185" type="line"/>
			<point x="396" y="-185" type="line"/>
			<point x="293" y="783" type="line"/>
			<point x="150" y="783" type="line"/>
		</contour>
	</outline>
</glyph>
<glyph name="bracketright" format="2">
	<unicode hex="005D"/>
	<advance width="373"/>
	<outline>
		<contour>
			<point x="465" y="783" type="line"/>
			<point x="194" y="783" type="line"/>
			<point x="165" y="664" type="line"/>
			<point x="294" y="664" type="line"/>
			<point x="119" y="-66" type="line"/>
			<point x="-9" y="-66" type="line"/>
			<point x="-38" y="-185" type="line"/>
			<point x="232" y="-185" type="line"/>
		</contour>
	</outline>
</glyph>
<glyph name="h" format="2">
	<unicode hex="0068"/>
	<advance width="565"/>
	<outline>
		<contour>
			<point x="425" y="535" type="curve" smooth="yes"/>
			<point x="398" y="535"/>
			<point x="371" y="530"/>
			<point x="344" y="525" type="curve"/>
			<point x="405" y="776" type="line"/>
			<point x="250" y="752" type="line"/>
			<point x="70" y="0" type="line"/>
			<point x="219" y="0" type="line"/>
			<point x="316" y="406" type="line"/>
			<point x="335" y="410"/>
			<point x="354" y="413"/>
			<point x="375" y="413" type="curve" smooth="yes"/>
			<point x="426" y="413"/>
			<point x="440" y="385"/>
			<point x="440" y="350" type="curve" smooth="yes"/>
			<point x="440" y="327"/>
			<point x="434" y="301"/>
			<point x="429" y="278" type="curve" smooth="yes"/>
			<point x="363" y="0" type="line"/>
			<point x="512" y="0" type="line"/>
			<point x="580" y="284" type="line" smooth="yes"/>
			<point x="587" y="313"/>
			<point x="590" y="340"/>
			<point x="590" y="367" type="curve" smooth="yes"/>
			<point x="590" y="464"/>
			<point x="539" y="535"/>
		</contour>
	</outline>
</glyph>
<glyph name="l" format="2">
	<unicode hex="006C"/>
	<advance width="315"/>
	<outline>
		<contour>
			<point x="318" y="113" type="line"/>
			<point x="249" y="118"/>
			<point x="245" y="152"/>
			<point x="256" y="200" type="curve" smooth="yes"/>
			<point x="395" y="776" type="line"/>
			<point x="240" y="752" type="line"/>
			<point x="113" y="221" type="line" smooth="yes"/>
			<point x="84" y="97"/>
			<point x="98" y="-10"/>
			<point x="288" y="-10" type="curve"/>
		</contour>
	</outline>
</glyph>
<glyph name="w" format="2">
	<unicode hex="0077"/>
	<advance width="816"/>
	<outline>
		<contour>
			<point x="482" y="308" type="curve"/>
			<point x="485" y="207"/>
			<point x="492" y="109"/>
			<point x="508" y="0" type="curve"/>
			<point x="624" y="0" type="line"/>
			<point x="771" y="184"/>
			<point x="863" y="393"/>
			<point x="916" y="526" type="curve"/>
			<point x="758" y="526" type="line"/>
			<point x="726" y="435"/>
			<point x="675" y="297"/>
			<point x="603" y="176" type="curve"/>
			<point x="590" y="309"/>
			<point x="588" y="430"/>
			<point x="588" y="526" type="curve"/>
			<point x="464" y="526" type="line"/>
			<point x="424" y="424"/>
			<point x="358" y="288"/>
			<point x="291" y="176" type="curve"/>
			<point x="278" y="299"/>
			<point x="276" y="430"/>
			<point x="276" y="526" type="curve"/>
			<point x="130" y="526" type="line"/>
			<point x="138" y="317"/>
			<point x="166" y="111"/>
			<point x="187" y="0" type="curve"/>
			<point x="303" y="0" type="line"/>
			<point x="351" y="75"/>
			<point x="432" y="199"/>
		</contour>
	</outline>
</glyph>
<glyph name="y" format="2">
	<unicode hex="0079"/>
	<advance width="532"/>
	<outline>
		<contour>
			<point x="474" y="526" type="line"/>
			<point x="431" y="385"/>
			<point x="385" y="268"/>
			<point x="321" y="172" type="curve"/>
			<point x="305" y="268"/>
			<point x="293" y="421"/>
			<point x="290" y="526" type="curve"/>
			<point x="137" y="526" type="line"/>
			<point x="148" y="319"/>
			<point x="179" y="155"/>
			<point x="214" y="22" type="curve"/>
			<point x="186" y="-29"/>
			<point x="142" y="-61"/>
			<point x="95" y="-61" type="curve" smooth="yes"/>
			<point x="64" y="-61"/>
			<point x="47" y="-55"/>
			<point x="20" y="-44" type="curve"/>
			<point x="-25" y="-161" type="line"/>
			<point x="4" y="-176"/>
			<point x="35" y="-185"/>
			<point x="82" y="-185" type="curve" smooth="yes"/>
			<point x="233" y="-185"/>
			<point x="310" y="-67"/>
			<point x="382" y="38" type="curve"/>
			<point x="481" y="179"/>
			<point x="557" y="323"/>
			<point x="632" y="526" type="curve"/>
		</contour>
	</outline>
</glyph>
<glyph name="bar" format="2">
	<unicode hex="007C"/>
	<advance width="304"/>
	<outline>
		<contour>
			<point x="30" y="-185" type="line"/>
			<point x="171" y="-185" type="line"/>
			<point x="404" y="783" type="line"/>
			<point x="262" y="783" type="line"/>
		</contour>
	</outline>
</glyph>
<glyph name="exclamdown" format="2">
	<unicode hex="00A1"/>
	<advance width="295"/>
	<outline>
		<contour>
			<point x="75" y="4" type="line"/>
			<point x="95" y="85"/>
			<point x="140" y="225"/>
			<point x="167" y="297" type="qcurve"/>
			<point x="281" y="297" type="line"/>
			<point x="273" y="225"/>
			<point x="253" y="85"/>
			<point x="234" y="4" type="qcurve"/>
			<point x="191" y="-175" type="line"/>
			<point x="32" y="-175" type="line"/>
		</contour>
		<contour>
			<point x="243" y="347" type="qcurve"/>
			<point x="208" y="347"/>
			<point x="161" y="386"/>
			<point x="161" y="428" type="qcurve"/>
			<point x="161" y="451"/>
			<point x="178" y="489"/>
			<point x="206" y="516"/>
			<point x="242" y="531"/>
			<point x="261" y="531" type="qcurve"/>
			<point x="296" y="531"/>
			<point x="343" y="492"/>
			<point x="343" y="450" type="qcurve"/>
			<point x="343" y="427"/>
			<point x="326" y="389"/>
			<point x="298" y="362"/>
			<point x="262" y="347"/>
		</contour>
	</outline>
</glyph>
<glyph name="ordfeminine" format="2">
	<unicode hex="00AA"/>
	<advance width="472"/>
	<outline>
		<contour>
			<point x="388" y="503" type="line"/>
			<point x="383" y="483"/>
			<point x="378" y="461"/>
			<point x="378" y="441" type="curve" smooth="yes"/>
			<point x="378" y="434"/>
			<point x="378" y="430"/>
			<point x="379" y="427" type="curve"/>
			<point x="358" y="411"/>
			<point x="338" y="405"/>
			<point x="319" y="405" type="curve" smooth="yes"/>
			<point x="276" y="405"/>
			<point x="256" y="438"/>
			<point x="256" y="478" type="curve" smooth="yes"/>
			<point x="256" y="558"/>
			<point x="317" y="609"/>
			<point x="389" y="609" type="curve" smooth="yes"/>
			<point x="397" y="609"/>
			<point x="406" y="608"/>
			<point x="415" y="607" type="curve"/>
		</contour>
		<contour>
			<point x="542" y="690" type="line"/>
			<point x="495" y="703"/>
			<point x="453" y="708"/>
			<point x="414" y="708" type="curve" smooth="yes"/>
			<point x="234" y="708"/>
			<point x="150" y="579"/>
			<point x="150" y="467" type="curve" smooth="yes"/>
			<point x="150" y="381"/>
			<point x="199" y="305"/>
			<point x="292" y="305" type="curve" smooth="yes"/>
			<point x="327" y="305"/>
			<point x="362" y="317"/>
			<point x="397" y="340" type="curve"/>
			<point x="410" y="309" type="line"/>
			<point x="504" y="322" type="line"/>
			<point x="475" y="398"/>
			<point x="485" y="459"/>
			<point x="498" y="504" type="curve"/>
		</contour>
	</outline>
</glyph>
<glyph name="cedilla" format="2">
	<unicode hex="00B8"/>
	<advance width="326"/>
	<outline>
		<contour>
			<point x="194" y="-44" type="curve"/>
			<point x="205" y="-28"/>
			<point x="228" y="6"/>
			<point x="239" y="20" type="curve"/>
			<point x="145" y="20" type="line"/>
			<point x="137" y="7"/>
			<point x="102" y="-39"/>
			<point x="86" y="-65" type="curve"/>
			<point x="106" y="-74" type="line" smooth="yes"/>
			<point x="127" y="-83"/>
			<point x="136" y="-91"/>
			<point x="136" y="-106" type="curve" smooth="yes"/>
			<point x="136" y="-122"/>
			<point x="123" y="-130"/>
			<point x="96" y="-130" type="curve" smooth="yes"/>
			<point x="76" y="-130"/>
			<point x="52" y="-124"/>
			<point x="35" y="-116" type="curve"/>
			<point x="-1" y="-198" type="line"/>
			<point x="27" y="-213"/>
			<point x="64" y="-221"/>
			<point x="100" y="-221" type="curve" smooth="yes"/>
			<point x="170" y="-221"/>
			<point x="238" y="-189"/>
			<point x="238" y="-111" type="curve" smooth="yes"/>
			<point x="238" y="-84"/>
			<point x="223" y="-59"/>
		</contour>
	</outline>
</glyph>
<glyph name="questiondown" format="2">
	<unicode hex="00BF"/>
	<advance width="430"/>
	<outline>
		<contour>
			<point x="298" y="106" type="curve" smooth="yes"/>
			<point x="365" y="157"/>
			<point x="419" y="208"/>
			<point x="419" y="292" type="curve"/>
			<point x="287" y="292" type="line"/>
			<point x="282" y="241"/>
			<point x="239" y="205"/>
			<point x="188" y="168" type="curve"/>
			<point x="119" y="115"/>
			<point x="40" y="65"/>
			<point x="40" y="-50" type="curve" smooth="yes"/>
			<point x="40" y="-147"/>
			<point x="126" y="-196"/>
			<point x="222" y="-196" type="curve" smooth="yes"/>
			<point x="290" y="-196"/>
			<point x="361" y="-176"/>
			<point x="413" y="-147" type="curve"/>
			<point x="394" y="-30" type="line"/>
			<point x="360" y="-51"/>
			<point x="299" y="-70"/>
			<point x="251" y="-70" type="curve" smooth="yes"/>
			<point x="214" y="-70"/>
			<point x="186" y="-55"/>
			<point x="186" y="-20" type="curve" smooth="yes"/>
			<point x="186" y="19"/>
			<point x="217" y="44"/>
		</contour>
		<contour>
			<point x="367" y="342" type="curve" smooth="yes"/>
			<point x="418" y="342"/>
			<point x="467" y="384"/>
			<point x="467" y="445" type="curve" smooth="yes"/>
			<point x="467" y="500"/>
			<point x="432" y="526"/>
			<point x="385" y="526" type="curve" smooth="yes"/>
			<point x="334" y="526"/>
			<point x="285" y="484"/>
			<point x="285" y="423" type="curve" smooth="yes"/>
			<point x="285" y="368"/>
			<point x="320" y="342"/>
		</contour>
	</outline>
</glyph>
<glyph name="AE" format="2">
	<unicode hex="00C6"/>
	<advance width="977"/>
	<outline>
		<contour>
			<point x="468" y="0" type="line"/>
			<point x="933" y="0" type="line"/>
			<point x="965" y="131" type="line"/>
			<point x="646" y="131" type="line"/>
			<point x="686" y="298" type="line"/>
			<point x="947" y="298" type="line"/>
			<point x="978" y="426" type="line"/>
			<point x="717" y="426" type="line"/>
			<point x="749" y="562" type="line"/>
			<point x="1045" y="562" type="line"/>
			<point x="1077" y="693" type="line"/>
			<point x="582" y="693" type="line"/>
			<point x="376" y="479"/>
			<point x="223" y="289"/>
			<point x="0" y="0" type="curve"/>
			<point x="160" y="0" type="line"/>
			<point x="196" y="51"/>
			<point x="243" y="113"/>
			<point x="284" y="164" type="curve"/>
			<point x="508" y="164" type="line"/>
		</contour>
		<contour>
			<point x="537" y="288" type="line"/>
			<point x="376" y="288" type="line"/>
			<point x="440" y="363"/>
			<point x="543" y="485"/>
			<point x="599" y="546" type="curve"/>
		</contour>
	</outline>
</glyph>
<glyph name="Oslash" format="2">
	<unicode hex="00D8"/>
	<advance width="757"/>
	<outline>
		<contour>
			<point x="401" y="-14" type="curve" smooth="yes"/>
			<point x="649" y="-14"/>
			<point x="794" y="209"/>
			<point x="794" y="418" type="curve" smooth="yes"/>
			<point x="794" y="490"/>
			<point x="776" y="550"/>
			<point x="744" y="597" type="curve"/>
			<point x="812" y="675" type="line"/>
			<point x="734" y="738" type="line"/>
			<point x="672" y="667" type="line"/>
			<point x="628" y="695"/>
			<point x="576" y="709"/>
			<point x="516" y="709" type="curve" smooth="yes"/>
			<point x="271" y="709"/>
			<point x="123" y="484"/>
			<point x="123" y="277" type="curve" smooth="yes"/>
			<point x="123" y="205"/>
			<point x="139" y="146"/>
			<point x="172" y="99" type="curve"/>
			<point x="101" y="18" type="line"/>
			<point x="179" y="-45" type="line"/>
			<point x="243" y="28" type="line"/>
			<point x="287" y="0"/>
			<point x="340" y="-14"/>
		</contour>
		<contour>
			<point x="639" y="412" type="curve" smooth="yes"/>
			<point x="639" y="264"/>
			<point x="534" y="115"/>
			<point x="411" y="115" type="curve" smooth="yes"/>
			<point x="380" y="115"/>
			<point x="355" y="122"/>
			<point x="336" y="135" type="curve"/>
			<point x="633" y="471" type="line"/>
			<point x="637" y="453"/>
			<point x="639" y="433"/>
		</contour>
		<contour>
			<point x="505" y="580" type="curve" smooth="yes"/>
			<point x="534" y="580"/>
			<point x="559" y="573"/>
			<point x="578" y="560" type="curve"/>
			<point x="283" y="225" type="line"/>
			<point x="279" y="242"/>
			<point x="278" y="261"/>
			<point x="278" y="282" type="curve" smooth="yes"/>
			<point x="278" y="429"/>
			<point x="381" y="580"/>
		</contour>
	</outline>
</glyph>
<glyph name="ccedilla" format="2">
	<unicode hex="00E7"/>
	<advance width="480"/>
	<outline>
		<contour>
			<point x="100" y="210" type="curve" smooth="yes"/>
			<point x="100" y="109"/>
			<point x="145" y="22"/>
			<point x="254" y="-5" type="curve"/>
			<point x="214" y="-65" type="line"/>
			<point x="234" y="-74" type="line" smooth="yes"/>
			<point x="255" y="-83"/>
			<point x="264" y="-91"/>
			<point x="264" y="-106" type="curve" smooth="yes"/>
			<point x="264" y="-122"/>
			<point x="251" y="-130"/>
			<point x="224" y="-130" type="curve" smooth="yes"/>
			<point x="204" y="-130"/>
			<point x="180" y="-124"/>
			<point x="163" y="-116" type="curve"/>
			<point x="127" y="-198" type="line"/>
			<point x="155" y="-213"/>
			<point x="192" y="-221"/>
			<point x="228" y="-221" type="curve" smooth="yes"/>
			<point x="298" y="-221"/>
			<point x="366" y="-189"/>
			<point x="366" y="-111" type="curve" smooth="yes"/>
			<point x="366" y="-84"/>
			<point x="351" y="-59"/>
			<point x="322" y="-44" type="curve"/>
			<point x="327" y="-36"/>
			<point x="334" y="-25"/>
			<point x="342" y="-14" type="curve"/>
			<point x="398" y="-11"/>
			<point x="437" y="1"/>
			<point x="472" y="14" type="curve"/>
			<point x="461" y="133" type="line"/>
			<point x="433" y="121"/>
			<point x="396" y="112"/>
			<point x="357" y="112" type="curve" smooth="yes"/>
			<point x="278" y="112"/>
			<point x="254" y="158"/>
			<point x="254" y="226" type="curve" smooth="yes"/>
			<point x="254" y="341"/>
			<point x="316" y="414"/>
			<point x="415" y="414" type="curve" smooth="yes"/>
			<point x="456" y="414"/>
			<point x="482" y="404"/>
			<point x="509" y="393" type="curve"/>
			<point x="560" y="509" type="line"/>
			<point x="521" y="528"/>
			<point x="475" y="540"/>
			<point x="415" y="540" type="curve" smooth="yes"/>
			<point x="222" y="540"/>
			<point x="100" y="391"/>
		</contour>
	</outline>
</glyph>
<glyph name="divide" format="2">
	<unicode hex="00F7"/>
	<advance width="568"/>
	<outline>
		<contour>
			<point x="90" y="236" type="line"/>
			<point x="560" y="236" type="line"/>
			<point x="591" y="361" type="line"/>
			<point x="121" y="361" type="line"/>
		</contour>
		<contour>
			<point x="296" y="181" type="curve" smooth="yes"/>
			<point x="248" y="181"/>
			<point x="203" y="145"/>
			<point x="203" y="85" type="curve" smooth="yes"/>
			<point x="203" y="34"/>
			<point x="235" y="11"/>
			<point x="278" y="11" type="curve" smooth="yes"/>
			<point x="326" y="11"/>
			<point x="371" y="47"/>
			<point x="371" y="107" type="curve" smooth="yes"/>
			<point x="371" y="158"/>
			<point x="339" y="181"/>
		</contour>
		<contour>
			<point x="393" y="585" type="curve" smooth="yes"/>
			<point x="345" y="585"/>
			<point x="300" y="549"/>
			<point x="300" y="489" type="curve" smooth="yes"/>
			<point x="300" y="438"/>
			<point x="332" y="415"/>
			<point x="375" y="415" type="curve" smooth="yes"/>
			<point x="423" y="415"/>
			<point x="468" y="451"/>
			<point x="468" y="511" type="curve" smooth="yes"/>
			<point x="468" y="562"/>
			<point x="436" y="585"/>
		</contour>
	</outline>
</glyph>
<glyph name="oslash" format="2">
	<unicode hex="00F8"/>
	<advance width="574"/>
	<outline>
		<contour>
			<point x="274" y="116" type="line"/>
			<point x="294" y="109"/>
			<point x="318" y="109" type="qcurve"/>
			<point x="357" y="109"/>
			<point x="411" y="148"/>
			<point x="445" y="211"/>
			<point x="460" y="289"/>
			<point x="460" y="328" type="qcurve"/>
		</contour>
		<contour>
			<point x="308" y="-14" type="qcurve"/>
			<point x="270" y="-14"/>
			<point x="210" y="3"/>
			<point x="186" y="17" type="qcurve"/>
			<point x="137" y="-39" type="line"/>
			<point x="72" y="14" type="line"/>
			<point x="129" y="79" type="line"/>
			<point x="100" y="132"/>
			<point x="100" y="203" type="qcurve"/>
			<point x="100" y="263"/>
			<point x="139" y="383"/>
			<point x="215" y="479"/>
			<point x="325" y="540"/>
			<point x="396" y="540" type="qcurve"/>
			<point x="430" y="540"/>
			<point x="487" y="526"/>
			<point x="510" y="513" type="qcurve"/>
			<point x="556" y="566" type="line"/>
			<point x="621" y="513" type="line"/>
			<point x="570" y="455" type="line"/>
			<point x="587" y="429"/>
			<point x="604" y="361"/>
			<point x="604" y="323" type="qcurve"/>
			<point x="604" y="263"/>
			<point x="566" y="143"/>
			<point x="492" y="47"/>
			<point x="381" y="-14"/>
		</contour>
		<contour>
			<point x="425" y="416" type="line"/>
			<point x="405" y="423"/>
			<point x="381" y="423" type="qcurve"/>
			<point x="342" y="423"/>
			<point x="288" y="384"/>
			<point x="254" y="321"/>
			<point x="239" y="243"/>
			<point x="239" y="204" type="qcurve"/>
		</contour>
	</outline>
</glyph>
<glyph name="dcroat" format="2">
	<unicode hex="0111"/>
	<advance width="590"/>
	<outline>
		<contour>
			<point x="287" y="-14" type="curve" smooth="yes"/>
			<point x="343" y="-14"/>
			<point x="389" y="8"/>
			<point x="426" y="39" type="curve"/>
			<point x="433" y="20"/>
			<point x="439" y="7"/>
			<point x="447" y="-9" type="curve"/>
			<point x="580" y="10" type="line"/>
			<point x="557" y="69"/>
			<point x="546" y="151"/>
			<point x="565" y="227" type="curve"/>
			<point x="653" y="596" type="line"/>
			<point x="727" y="596" type="line"/>
			<point x="749" y="689" type="line"/>
			<point x="676" y="689" type="line"/>
			<point x="697" y="776" type="line"/>
			<point x="542" y="752" type="line"/>
			<point x="527" y="689" type="line"/>
			<point x="395" y="689" type="line"/>
			<point x="373" y="596" type="line"/>
			<point x="504" y="596" type="line"/>
			<point x="488" y="526" type="line"/>
			<point x="467" y="531"/>
			<point x="447" y="534"/>
			<point x="423" y="534" type="curve" smooth="yes"/>
			<point x="237" y="534"/>
			<point x="100" y="385"/>
			<point x="100" y="203" type="curve" smooth="yes"/>
			<point x="100" y="83"/>
			<point x="154" y="-14"/>
		</contour>
		<contour>
			<point x="422" y="253" type="line"/>
			<point x="415" y="222"/>
			<point x="409" y="183"/>
			<point x="406" y="150" type="curve"/>
			<point x="378" y="122"/>
			<point x="355" y="111"/>
			<point x="324" y="111" type="curve" smooth="yes"/>
			<point x="267" y="111"/>
			<point x="248" y="150"/>
			<point x="248" y="214" type="curve" smooth="yes"/>
			<point x="248" y="314"/>
			<point x="316" y="411"/>
			<point x="410" y="411" type="curve" smooth="yes"/>
			<point x="440" y="411"/>
			<point x="442" y="410"/>
			<point x="459" y="407" type="curve"/>
		</contour>
	</outline>
</glyph>
<glyph name="Iogonek" format="2">
	<unicode hex="012E"/>
	<advance width="312"/>
	<outline>
		<contour>
			<point x="75" y="0" type="line"/>
			<point x="109" y="0" type="line"/>
			<point x="54" y="-37"/>
			<point x="-3" y="-88"/>
			<point x="-3" y="-144" type="curve" smooth="yes"/>
			<point x="-3" y="-189"/>
			<point x="34" y="-221"/>
			<point x="97" y="-221" type="curve" smooth="yes"/>
			<point x="128" y="-221"/>
			<point x="172" y="-216"/>
			<point x="200" y="-205" type="curve"/>
			<point x="212" y="-105" type="line"/>
			<point x="188" y="-112"/>
			<point x="171" y="-113"/>
			<point x="159" y="-113" type="curve" smooth="yes"/>
			<point x="140" y="-113"/>
			<point x="134" y="-107"/>
			<point x="134" y="-96" type="curve" smooth="yes"/>
			<point x="134" y="-66"/>
			<point x="191" y="-27"/>
			<point x="229" y="0" type="curve"/>
			<point x="230" y="0" type="line"/>
			<point x="397" y="693" type="line"/>
			<point x="241" y="693" type="line"/>
		</contour>
	</outline>
</glyph>
<glyph name="uni0163" format="2">
	<unicode hex="0163"/>
	<advance width="416"/>
	<outline>
		<contour>
			<point x="115" y="243" type="line"/>
			<point x="85" y="122"/>
			<point x="92" y="14"/>
			<point x="222" y="-7" type="curve"/>
			<point x="207" y="-26"/>
			<point x="192" y="-49"/>
			<point x="183" y="-65" type="curve"/>
			<point x="203" y="-74" type="line" smooth="yes"/>
			<point x="224" y="-83"/>
			<point x="233" y="-91"/>
			<point x="233" y="-106" type="curve" smooth="yes"/>
			<point x="233" y="-122"/>
			<point x="220" y="-130"/>
			<point x="193" y="-130" type="curve" smooth="yes"/>
			<point x="173" y="-130"/>
			<point x="149" y="-124"/>
			<point x="132" y="-116" type="curve"/>
			<point x="96" y="-198" type="line"/>
			<point x="124" y="-213"/>
			<point x="161" y="-221"/>
			<point x="197" y="-221" type="curve" smooth="yes"/>
			<point x="267" y="-221"/>
			<point x="335" y="-189"/>
			<point x="335" y="-111" type="curve" smooth="yes"/>
			<point x="335" y="-84"/>
			<point x="320" y="-59"/>
			<point x="291" y="-44" type="curve"/>
			<point x="314" y="-10" type="line"/>
			<point x="358" y="-7"/>
			<point x="392" y="3"/>
			<point x="424" y="15" type="curve"/>
			<point x="413" y="129" type="line"/>
			<point x="382" y="118"/>
			<point x="353" y="112"/>
			<point x="321" y="112" type="curve" smooth="yes"/>
			<point x="246" y="112"/>
			<point x="241" y="158"/>
			<point x="257" y="220" type="curve"/>
			<point x="301" y="404" type="line"/>
			<point x="466" y="404" type="line"/>
			<point x="496" y="526" type="line"/>
			<point x="330" y="526" type="line"/>
			<point x="368" y="681" type="line"/>
			<point x="213" y="657" type="line"/>
		</contour>
	</outline>
</glyph>
<glyph name="uni018D" format="2">
	<unicode hex="018D"/>
	<advance width="555"/>
	<outline>
		<contour>
			<point x="602" y="345" type="curve" smooth="yes"/>
			<point x="602" y="450"/>
			<point x="537" y="540"/>
			<point x="402" y="540" type="curve" smooth="yes"/>
			<point x="263" y="540"/>
			<point x="104" y="453"/>
			<point x="104" y="241" type="curve" smooth="yes"/>
			<point x="104" y="49"/>
			<point x="295" y="40"/>
			<point x="295" y="-29" type="curve" smooth="yes"/>
			<point x="295" y="-60"/>
			<point x="264" y="-71"/>
			<point x="223" y="-71" type="curve" smooth="yes"/>
			<point x="179" y="-71"/>
			<point x="124" y="-56"/>
			<point x="88" y="-35" type="curve"/>
			<point x="30" y="-146" type="line"/>
			<point x="74" y="-171"/>
			<point x="144" y="-188"/>
			<point x="213" y="-188" type="curve" smooth="yes"/>
			<point x="326" y="-188"/>
			<point x="437" y="-145"/>
			<point x="437" y="-28" type="curve" smooth="yes"/>
			<point x="437" y="9"/>
			<point x="424" y="35"/>
			<point x="405" y="56" type="curve"/>
			<point x="534" y="112"/>
			<point x="602" y="236"/>
		</contour>
		<contour>
			<point x="244" y="252" type="curve" smooth="yes"/>
			<point x="244" y="371"/>
			<point x="325" y="413"/>
			<point x="384" y="413" type="curve" smooth="yes"/>
			<point x="436" y="413"/>
			<point x="461" y="377"/>
			<point x="461" y="330" type="curve" smooth="yes"/>
			<point x="461" y="263"/>
			<point x="410" y="171"/>
			<point x="315" y="126" type="curve"/>
			<point x="276" y="154"/>
			<point x="244" y="189"/>
		</contour>
	</outline>
</glyph>
<glyph name="uni0191" format="2">
	<unicode hex="0191"/>
	<advance width="560"/>
	<outline>
		<contour>
			<point x="227" y="-17" type="line"/>
			<point x="206" y="-105"/>
			<point x="95" y="-188"/>
			<point x="26" y="-188" type="qcurve"/>
			<point x="-25" y="-188"/>
			<point x="-75" y="-166" type="qcurve"/>
			<point x="-34" y="-48" type="line"/>
			<point x="-8" y="-58"/>
			<point x="13" y="-58" type="qcurve"/>
			<point x="39" y="-58"/>
			<point x="69" y="-24"/>
			<point x="78" y="12" type="qcurve"/>
			<point x="241" y="693" type="line"/>
			<point x="685" y="693" type="line"/>
			<point x="654" y="562" type="line"/>
			<point x="366" y="562" type="line"/>
			<point x="331" y="417" type="line"/>
			<point x="585" y="417" type="line"/>
			<point x="553" y="286" type="line"/>
			<point x="299" y="286" type="line"/>
		</contour>
	</outline>
</glyph>
<glyph name="uni0194" format="2">
	<unicode hex="0194"/>
	<advance width="706"/>
	<outline>
		<contour>
			<point x="240" y="97" type="line"/>
			<point x="200" y="48"/>
			<point x="180" y="-6"/>
			<point x="180" y="-54" type="curve" smooth="yes"/>
			<point x="180" y="-127"/>
			<point x="228" y="-185"/>
			<point x="320" y="-185" type="curve" smooth="yes"/>
			<point x="442" y="-185"/>
			<point x="512" y="-95"/>
			<point x="512" y="10" type="curve" smooth="yes"/>
			<point x="512" y="38"/>
			<point x="507" y="67"/>
			<point x="497" y="96" type="curve" smooth="yes"/>
			<point x="476" y="157" type="line"/>
			<point x="605" y="326"/>
			<point x="728" y="494"/>
			<point x="868" y="693" type="curve"/>
			<point x="708" y="693" type="line"/>
			<point x="602" y="537"/>
			<point x="516" y="420"/>
			<point x="420" y="292" type="curve"/>
			<point x="374" y="439"/>
			<point x="356" y="527"/>
			<point x="310" y="693" type="curve"/>
			<point x="151" y="693" type="line"/>
			<point x="207" y="496"/>
			<point x="256" y="340"/>
			<point x="304" y="176" type="curve"/>
		</contour>
		<contour>
			<point x="333" y="-65" type="curve" smooth="yes"/>
			<point x="305" y="-65"/>
			<point x="294" y="-52"/>
			<point x="294" y="-35" type="curve" smooth="yes"/>
			<point x="294" y="-16"/>
			<point x="306" y="9"/>
			<point x="325" y="30" type="curve" smooth="yes"/>
			<point x="370" y="81" type="line"/>
			<point x="381" y="39" type="line" smooth="yes"/>
			<point x="385" y="22"/>
			<point x="388" y="6"/>
			<point x="388" y="-9" type="curve" smooth="yes"/>
			<point x="388" y="-41"/>
			<point x="376" y="-65"/>
		</contour>
	</outline>
</glyph>
<glyph name="uni019C" format="2">
	<unicode hex="019C"/>
	<advance width="972"/>
	<outline>
		<contour>
			<point x="1057" y="693" type="line"/>
			<point x="901" y="693" type="line"/>
			<point x="765" y="125" type="line"/>
			<point x="741" y="122"/>
			<point x="708" y="120"/>
			<point x="681" y="120" type="curve" smooth="yes"/>
			<point x="626" y="120"/>
			<point x="605" y="135"/>
			<point x="605" y="182" type="curve" smooth="yes"/>
			<point x="605" y="207"/>
			<point x="611" y="244"/>
			<point x="623" y="292" type="curve" smooth="yes"/>
			<point x="719" y="693" type="line"/>
			<point x="563" y="693" type="line"/>
			<point x="462" y="269" type="line" smooth="yes"/>
			<point x="451" y="222"/>
			<point x="444" y="182"/>
			<point x="444" y="143" type="curve"/>
			<point x="417" y="131"/>
			<point x="381" y="120"/>
			<point x="344" y="120" type="curve" smooth="yes"/>
			<point x="288" y="120"/>
			<point x="267" y="136"/>
			<point x="267" y="183" type="curve" smooth="yes"/>
			<point x="267" y="210"/>
			<point x="274" y="245"/>
			<point x="285" y="292" type="curve" smooth="yes"/>
			<point x="381" y="693" type="line"/>
			<point x="225" y="693" type="line"/>
			<point x="124" y="269" type="line" smooth="yes"/>
			<point x="115" y="230"/>
			<point x="110" y="194"/>
			<point x="110" y="163" type="curve" smooth="yes"/>
			<point x="110" y="30"/>
			<point x="196" y="-14"/>
			<point x="295" y="-14" type="curve" smooth="yes"/>
			<point x="367" y="-14"/>
			<point x="447" y="9"/>
			<point x="504" y="37" type="curve"/>
			<point x="545" y="-3"/>
			<point x="603" y="-14"/>
			<point x="671" y="-14" type="curve" smooth="yes"/>
			<point x="751" y="-14"/>
			<point x="831" y="1"/>
			<point x="895" y="18" type="curve"/>
		</contour>
	</outline>
</glyph>
<glyph name="uni01A6" format="2">
	<unicode hex="01A6"/>
	<advance width="661"/>
	<outline>
		<contour>
			<point x="446" y="701" type="curve" smooth="yes"/>
			<point x="431" y="701"/>
			<point x="415" y="701"/>
			<point x="398" y="700" type="curve"/>
			<point x="416" y="776" type="line"/>
			<point x="261" y="776" type="line"/>
			<point x="75" y="0" type="line"/>
			<point x="230" y="0" type="line"/>
			<point x="291" y="253" type="line"/>
			<point x="376" y="253" type="line"/>
			<point x="414" y="189"/>
			<point x="482" y="33"/>
			<point x="514" y="-109" type="curve"/>
			<point x="681" y="-109" type="line"/>
			<point x="627" y="103"/>
			<point x="572" y="212"/>
			<point x="532" y="281" type="curve"/>
			<point x="663" y="329"/>
			<point x="704" y="423"/>
			<point x="704" y="510" type="curve" smooth="yes"/>
			<point x="704" y="610"/>
			<point x="636" y="701"/>
		</contour>
		<contour>
			<point x="431" y="570" type="curve" smooth="yes"/>
			<point x="522" y="570"/>
			<point x="545" y="529"/>
			<point x="545" y="484" type="curve" smooth="yes"/>
			<point x="545" y="433"/>
			<point x="503" y="377"/>
			<point x="374" y="377" type="curve" smooth="yes"/>
			<point x="321" y="377" type="line"/>
			<point x="366" y="567" type="line"/>
			<point x="382" y="568"/>
			<point x="408" y="570"/>
		</contour>
	</outline>
</glyph>
<glyph name="uni01A7" format="2">
	<unicode hex="01A7"/>
	<advance width="549"/>
	<outline>
		<contour>
			<point x="219" y="171" type="curve" smooth="yes"/>
			<point x="219" y="334"/>
			<point x="634" y="250"/>
			<point x="634" y="553" type="curve" smooth="yes"/>
			<point x="634" y="660"/>
			<point x="543" y="709"/>
			<point x="428" y="709" type="curve" smooth="yes"/>
			<point x="357" y="709"/>
			<point x="279" y="692"/>
			<point x="207" y="657" type="curve"/>
			<point x="227" y="534" type="line"/>
			<point x="275" y="562"/>
			<point x="335" y="577"/>
			<point x="384" y="577" type="curve" smooth="yes"/>
			<point x="435" y="577"/>
			<point x="473" y="561"/>
			<point x="473" y="529" type="curve" smooth="yes"/>
			<point x="473" y="386"/>
			<point x="60" y="444"/>
			<point x="60" y="168" type="curve" smooth="yes"/>
			<point x="60" y="37"/>
			<point x="171" y="-14"/>
			<point x="298" y="-14" type="curve" smooth="yes"/>
			<point x="375" y="-14"/>
			<point x="455" y="-1"/>
			<point x="527" y="30" type="curve"/>
			<point x="515" y="163" type="line"/>
			<point x="475" y="142"/>
			<point x="389" y="119"/>
			<point x="319" y="119" type="curve" smooth="yes"/>
			<point x="263" y="119"/>
			<point x="219" y="132"/>
		</contour>
	</outline>
</glyph>
<glyph name="uni01A8" format="2">
	<unicode hex="01A8"/>
	<advance width="483"/>
	<outline>
		<contour>
			<point x="293" y="107" type="curve" smooth="yes"/>
			<point x="242" y="107"/>
			<point x="225" y="114"/>
			<point x="225" y="138" type="curve" smooth="yes"/>
			<point x="225" y="225"/>
			<point x="531" y="181"/>
			<point x="531" y="417" type="curve" smooth="yes"/>
			<point x="531" y="493"/>
			<point x="470" y="540"/>
			<point x="359" y="540" type="curve" smooth="yes"/>
			<point x="295" y="540"/>
			<point x="230" y="526"/>
			<point x="191" y="513" type="curve"/>
			<point x="196" y="397" type="line"/>
			<point x="235" y="409"/>
			<point x="268" y="420"/>
			<point x="319" y="420" type="curve" smooth="yes"/>
			<point x="368" y="420"/>
			<point x="381" y="407"/>
			<point x="381" y="388" type="curve" smooth="yes"/>
			<point x="381" y="286"/>
			<point x="79" y="336"/>
			<point x="79" y="125" type="curve" smooth="yes"/>
			<point x="79" y="52"/>
			<point x="137" y="-14"/>
			<point x="265" y="-14" type="curve" smooth="yes"/>
			<point x="358" y="-14"/>
			<point x="427" y="7"/>
			<point x="454" y="18" type="curve"/>
			<point x="448" y="139" type="line"/>
			<point x="392" y="119"/>
			<point x="345" y="107"/>
		</contour>
	</outline>
</glyph>
<glyph name="uni01AD" format="2">
	<unicode hex="01AD"/>
	<advance width="416"/>
	<outline>
		<contour>
			<point x="331" y="526" type="line"/>
			<point x="340" y="564" type="line" smooth="yes"/>
			<point x="356" y="631"/>
			<point x="402" y="652"/>
			<point x="453" y="652" type="curve" smooth="yes"/>
			<point x="476" y="652"/>
			<point x="501" y="647"/>
			<point x="526" y="636" type="curve"/>
			<point x="581" y="752" type="line"/>
			<point x="537" y="767"/>
			<point x="488" y="776"/>
			<point x="440" y="776" type="curve" smooth="yes"/>
			<point x="335" y="776"/>
			<point x="229" y="729"/>
			<point x="194" y="577" type="curve"/>
			<point x="114" y="241" type="line" smooth="yes"/>
			<point x="105" y="202"/>
			<point x="100" y="169"/>
			<point x="100" y="141" type="curve" smooth="yes"/>
			<point x="100" y="42"/>
			<point x="152" y="-12"/>
			<point x="273" y="-12" type="curve" smooth="yes"/>
			<point x="340" y="-12"/>
			<point x="408" y="7"/>
			<point x="424" y="15" type="curve"/>
			<point x="413" y="129" type="line"/>
			<point x="376" y="114"/>
			<point x="340" y="112"/>
			<point x="312" y="112" type="curve" smooth="yes"/>
			<point x="276" y="112"/>
			<point x="250" y="130"/>
			<point x="250" y="174" type="curve" smooth="yes"/>
			<point x="250" y="187"/>
			<point x="253" y="201"/>
			<point x="257" y="217" type="curve" smooth="yes"/>
			<point x="301" y="404" type="line"/>
			<point x="466" y="404" type="line"/>
			<point x="496" y="526" type="line"/>
		</contour>
	</outline>
</glyph>
<glyph name="Uhorn" format="2">
	<unicode hex="01AF"/>
	<advance width="746"/>
	<outline>
		<contour>
			<point x="750" y="597" type="line"/>
			<point x="880" y="605"/>
			<point x="915" y="705"/>
			<point x="926" y="801" type="curve"/>
			<point x="792" y="801" type="line"/>
			<point x="789" y="729"/>
			<point x="761" y="693"/>
			<point x="685" y="693" type="curve" smooth="yes"/>
			<point x="617" y="693" type="line"/>
			<point x="515" y="265" type="line"/>
			<point x="492" y="173"/>
			<point x="456" y="121"/>
			<point x="376" y="121" type="curve" smooth="yes"/>
			<point x="298" y="121"/>
			<point x="276" y="158"/>
			<point x="276" y="210" type="curve" smooth="yes"/>
			<point x="276" y="233"/>
			<point x="279" y="258"/>
			<point x="286" y="283" type="curve"/>
			<point x="384" y="693" type="line"/>
			<point x="228" y="693" type="line"/>
			<point x="135" y="305" type="line" smooth="yes"/>
			<point x="125" y="266"/>
			<point x="120" y="229"/>
			<point x="120" y="194" type="curve" smooth="yes"/>
			<point x="120" y="73"/>
			<point x="183" y="-14"/>
			<point x="355" y="-14" type="curve" smooth="yes"/>
			<point x="523" y="-14"/>
			<point x="623" y="64"/>
			<point x="668" y="252" type="curve" smooth="yes"/>
		</contour>
	</outline>
</glyph>
<glyph name="uni01B5" format="2">
	<unicode hex="01B5"/>
	<advance width="638"/>
	<outline>
		<contour>
			<point x="738" y="693" type="line"/>
			<point x="227" y="693" type="line"/>
			<point x="195" y="562" type="line"/>
			<point x="501" y="562" type="line"/>
			<point x="454" y="518"/>
			<point x="401" y="465"/>
			<point x="345" y="409" type="curve"/>
			<point x="190" y="409" type="line"/>
			<point x="163" y="299" type="line"/>
			<point x="242" y="299" type="line"/>
			<point x="175" y="226"/>
			<point x="115" y="154"/>
			<point x="68" y="93" type="curve"/>
			<point x="45" y="0" type="line"/>
			<point x="582" y="0" type="line"/>
			<point x="614" y="131" type="line"/>
			<point x="266" y="131" type="line"/>
			<point x="310" y="184"/>
			<point x="361" y="242"/>
			<point x="416" y="299" type="curve"/>
			<point x="618" y="299" type="line"/>
			<point x="645" y="409" type="line"/>
			<point x="524" y="409" type="line"/>
			<point x="596" y="481"/>
			<point x="664" y="544"/>
			<point x="712" y="585" type="curve"/>
		</contour>
	</outline>
</glyph>
<glyph name="uni01B7" format="2">
	<unicode hex="01B7"/>
	<advance width="605"/>
	<outline>
		<contour>
			<point x="265" y="392" type="line"/>
			<point x="288" y="411"/>
			<point x="343" y="456"/>
			<point x="397" y="502"/>
			<point x="447" y="545"/>
			<point x="467" y="563" type="qcurve"/>
			<point x="184" y="563" type="line"/>
			<point x="215" y="693" type="line"/>
			<point x="700" y="693" type="line"/>
			<point x="678" y="600" type="line"/>
			<point x="662" y="585"/>
			<point x="609" y="537"/>
			<point x="545" y="482"/>
			<point x="477" y="424"/>
			<point x="446" y="397" type="qcurve"/>
			<point x="485" y="391"/>
			<point x="545" y="360"/>
			<point x="585" y="316"/>
			<point x="605" y="261"/>
			<point x="605" y="231" type="qcurve"/>
			<point x="605" y="188"/>
			<point x="565" y="101"/>
			<point x="482" y="30"/>
			<point x="354" y="-14"/>
			<point x="266" y="-14" type="qcurve"/>
			<point x="200" y="-14"/>
			<point x="89" y="12"/>
			<point x="35" y="40" type="qcurve"/>
			<point x="110" y="164" type="line"/>
			<point x="148" y="141"/>
			<point x="236" y="119"/>
			<point x="280" y="119" type="qcurve"/>
			<point x="313" y="119"/>
			<point x="373" y="132"/>
			<point x="418" y="159"/>
			<point x="445" y="198"/>
			<point x="445" y="225" type="qcurve"/>
			<point x="445" y="263"/>
			<point x="374" y="306"/>
			<point x="294" y="306" type="qcurve"/>
			<point x="245" y="306" type="line"/>
		</contour>
	</outline>
</glyph>
<glyph name="uni01B9" format="2">
	<unicode hex="01B9"/>
	<advance width="516"/>
	<outline>
		<contour>
			<point x="452" y="230" type="line"/>
			<point x="420" y="281"/>
			<point x="379" y="351"/>
			<point x="350" y="402" type="curve"/>
			<point x="596" y="402" type="line"/>
			<point x="626" y="526" type="line"/>
			<point x="203" y="526" type="line"/>
			<point x="178" y="424" type="line"/>
			<point x="201" y="381"/>
			<point x="233" y="324"/>
			<point x="280" y="251" type="curve"/>
			<point x="116" y="230"/>
			<point x="40" y="119"/>
			<point x="40" y="15" type="curve" smooth="yes"/>
			<point x="40" y="-132"/>
			<point x="155" y="-185"/>
			<point x="275" y="-185" type="curve" smooth="yes"/>
			<point x="347" y="-185"/>
			<point x="420" y="-166"/>
			<point x="471" y="-135" type="curve"/>
			<point x="466" y="-16" type="line"/>
			<point x="434" y="-37"/>
			<point x="363" y="-56"/>
			<point x="302" y="-56" type="curve" smooth="yes"/>
			<point x="243" y="-56"/>
			<point x="192" y="-37"/>
			<point x="192" y="18" type="curve" smooth="yes"/>
			<point x="192" y="86"/>
			<point x="268" y="143"/>
			<point x="377" y="143" type="curve" smooth="yes"/>
			<point x="431" y="143" type="line"/>
		</contour>
	</outline>
</glyph>
<glyph name="uni01BF" format="2">
	<unicode hex="01BF"/>
	<advance width="577"/>
	<outline>
		<contour>
			<point x="238" y="88" type="line"/>
			<point x="292" y="101"/>
			<point x="373" y="156"/>
			<point x="429" y="223"/>
			<point x="457" y="294"/>
			<point x="457" y="325" type="qcurve"/>
			<point x="457" y="362"/>
			<point x="417" y="410"/>
			<point x="376" y="410" type="qcurve"/>
			<point x="344" y="410"/>
			<point x="313" y="397" type="qcurve"/>
		</contour>
		<contour>
			<point x="187" y="496" type="line"/>
			<point x="237" y="515"/>
			<point x="361" y="537"/>
			<point x="411" y="537" type="qcurve"/>
			<point x="511" y="537"/>
			<point x="607" y="439"/>
			<point x="607" y="348" type="qcurve"/>
			<point x="607" y="284"/>
			<point x="558" y="160"/>
			<point x="457" y="53"/>
			<point x="306" y="-30"/>
			<point x="204" y="-53" type="qcurve"/>
			<point x="173" y="-185" type="line"/>
			<point x="25" y="-185" type="line"/>
		</contour>
	</outline>
</glyph>
<glyph name="Aringacute" format="2">
	<unicode hex="01FA"/>
	<advance width="720"/>
	<outline>
		<contour>
			<point x="694" y="0" type="line"/>
			<point x="665" y="275"/>
			<point x="641" y="466"/>
			<point x="601" y="646" type="curve"/>
			<point x="618" y="663"/>
			<point x="627" y="686"/>
			<point x="627" y="714" type="curve" smooth="yes"/>
			<point x="627" y="778"/>
			<point x="578" y="813"/>
			<point x="525" y="813" type="curve" smooth="yes"/>
			<point x="473" y="813"/>
			<point x="424" y="778"/>
			<point x="424" y="714" type="curve" smooth="yes"/>
			<point x="424" y="696"/>
			<point x="427" y="681"/>
			<point x="434" y="668" type="curve"/>
			<point x="301" y="482"/>
			<point x="179" y="285"/>
			<point x="14" y="0" type="curve"/>
			<point x="175" y="0" type="line"/>
			<point x="202" y="52"/>
			<point x="228" y="101"/>
			<point x="255" y="150" type="curve"/>
			<point x="524" y="150" type="line"/>
			<point x="528" y="101"/>
			<point x="531" y="52"/>
			<point x="534" y="0" type="curve"/>
		</contour>
		<contour>
			<point x="486" y="541" type="curve"/>
			<point x="499" y="441"/>
			<point x="507" y="355"/>
			<point x="514" y="274" type="curve"/>
			<point x="326" y="274" type="line"/>
			<point x="377" y="362"/>
			<point x="430" y="449"/>
		</contour>
		<contour>
			<point x="564" y="714" type="curve" smooth="yes"/>
			<point x="564" y="687"/>
			<point x="545" y="673"/>
			<point x="525" y="673" type="curve" smooth="yes"/>
			<point x="506" y="673"/>
			<point x="486" y="687"/>
			<point x="486" y="714" type="curve" smooth="yes"/>
			<point x="486" y="741"/>
			<point x="506" y="755"/>
			<point x="525" y="755" type="curve" smooth="yes"/>
			<point x="545" y="755"/>
			<point x="564" y="741"/>
		</contour>
		<contour>
			<point x="600" y="962" type="line"/>
			<point x="437" y="880" type="line"/>
			<point x="460" y="819" type="line"/>
			<point x="634" y="884" type="line"/>
		</contour>
	</outline>
	<guideline y="818"/>
</glyph>
<glyph name="uni0223" format="2">
	<unicode hex="0223"/>
	<advance width="598"/>
	<outline>
		<contour>
			<point x="424" y="489" type="curve" smooth="yes"/>
			<point x="377" y="489"/>
			<point x="360" y="521"/>
			<point x="360" y="565" type="curve" smooth="yes"/>
			<point x="360" y="629"/>
			<point x="397" y="719"/>
			<point x="421" y="776" type="curve"/>
			<point x="281" y="776" type="line"/>
			<point x="252" y="705"/>
			<point x="219" y="627"/>
			<point x="219" y="559" type="curve" smooth="yes"/>
			<point x="219" y="515"/>
			<point x="238" y="475"/>
			<point x="277" y="444" type="curve"/>
			<point x="170" y="399"/>
			<point x="108" y="284"/>
			<point x="108" y="183" type="curve" smooth="yes"/>
			<point x="108" y="51"/>
			<point x="211" y="-15"/>
			<point x="326" y="-15" type="curve" smooth="yes"/>
			<point x="463" y="-15"/>
			<point x="615" y="81"/>
			<point x="615" y="273" type="curve" smooth="yes"/>
			<point x="615" y="337"/>
			<point x="597" y="396"/>
			<point x="541" y="431" type="curve"/>
			<point x="672" y="490"/>
			<point x="699" y="641"/>
			<point x="699" y="776" type="curve"/>
			<point x="565" y="776" type="line"/>
			<point x="546" y="592"/>
			<point x="510" y="489"/>
		</contour>
		<contour>
			<point x="334" y="114" type="curve" smooth="yes"/>
			<point x="282" y="114"/>
			<point x="251" y="142"/>
			<point x="251" y="194" type="curve" smooth="yes"/>
			<point x="251" y="291"/>
			<point x="321" y="361"/>
			<point x="394" y="361" type="curve" smooth="yes"/>
			<point x="446" y="361"/>
			<point x="476" y="328"/>
			<point x="476" y="276" type="curve" smooth="yes"/>
			<point x="476" y="175"/>
			<point x="403" y="114"/>
		</contour>
	</outline>
</glyph>
<glyph name="uni0234" format="2">
	<unicode hex="0234"/>
	<advance width="485"/>
	<outline>
		<contour>
			<point x="436" y="815" type="line"/>
			<point x="281" y="791" type="line"/>
			<point x="107" y="68" type="line"/>
			<point x="-40" y="-63" type="line"/>
			<point x="19" y="-135" type="line"/>
			<point x="133" y="-36" type="line"/>
			<point x="149" y="-108"/>
			<point x="203" y="-145"/>
			<point x="261" y="-145" type="curve" smooth="yes"/>
			<point x="406" y="-145"/>
			<point x="485" y="-36"/>
			<point x="485" y="59" type="curve" smooth="yes"/>
			<point x="485" y="131"/>
			<point x="439" y="195"/>
			<point x="342" y="195" type="curve" smooth="yes"/>
			<point x="323" y="195"/>
			<point x="304" y="192"/>
			<point x="285" y="186" type="curve"/>
		</contour>
		<contour>
			<point x="253" y="59" type="curve"/>
			<point x="270" y="74"/>
			<point x="296" y="82"/>
			<point x="317" y="82" type="curve" smooth="yes"/>
			<point x="346" y="82"/>
			<point x="359" y="63"/>
			<point x="359" y="40" type="curve" smooth="yes"/>
			<point x="359" y="6"/>
			<point x="332" y="-35"/>
			<point x="289" y="-35" type="curve" smooth="yes"/>
			<point x="254" y="-35"/>
			<point x="243" y="-14"/>
			<point x="243" y="10" type="curve" smooth="yes"/>
			<point x="243" y="19"/>
			<point x="245" y="28"/>
		</contour>
	</outline>
</glyph>
<glyph name="uni0239" format="2">
	<unicode hex="0239"/>
	<advance width="874"/>
	<outline>
		<contour>
			<point x="581" y="-8" type="curve" smooth="yes"/>
			<point x="793" y="-8"/>
			<point x="904" y="172"/>
			<point x="904" y="327" type="curve" smooth="yes"/>
			<point x="904" y="454"/>
			<point x="842" y="540"/>
			<point x="717" y="540" type="curve" smooth="yes"/>
			<point x="661" y="540"/>
			<point x="617" y="529"/>
			<point x="574" y="509" type="curve"/>
			<point x="522" y="529"/>
			<point x="478" y="540"/>
			<point x="425" y="540" type="curve" smooth="yes"/>
			<point x="242" y="540"/>
			<point x="100" y="399"/>
			<point x="100" y="204" type="curve" smooth="yes"/>
			<point x="100" y="85"/>
			<point x="158" y="-11"/>
			<point x="286" y="-11" type="curve" smooth="yes"/>
			<point x="317" y="-11"/>
			<point x="342" y="-4"/>
			<point x="369" y="8" type="curve"/>
			<point x="323" y="-185" type="line"/>
			<point x="473" y="-185" type="line"/>
			<point x="516" y="0" type="line"/>
			<point x="537" y="-5"/>
			<point x="557" y="-8"/>
		</contour>
		<contour>
			<point x="416" y="417" type="curve" smooth="yes"/>
			<point x="436" y="417"/>
			<point x="449" y="415"/>
			<point x="466" y="412" type="curve"/>
			<point x="400" y="139" type="line"/>
			<point x="376" y="118"/>
			<point x="342" y="113"/>
			<point x="323" y="113" type="curve" smooth="yes"/>
			<point x="266" y="113"/>
			<point x="248" y="151"/>
			<point x="248" y="215" type="curve" smooth="yes"/>
			<point x="248" y="318"/>
			<point x="322" y="417"/>
		</contour>
		<contour>
			<point x="611" y="400" type="line"/>
			<point x="619" y="407"/>
			<point x="653" y="415"/>
			<point x="680" y="415" type="curve" smooth="yes"/>
			<point x="737" y="415"/>
			<point x="756" y="376"/>
			<point x="756" y="312" type="curve" smooth="yes"/>
			<point x="756" y="212"/>
			<point x="688" y="115"/>
			<point x="594" y="115" type="curve" smooth="yes"/>
			<point x="564" y="115"/>
			<point x="562" y="116"/>
			<point x="545" y="119" type="curve"/>
		</contour>
	</outline>
</glyph>
<glyph name="uni023E" format="2">
	<unicode hex="023E"/>
	<advance width="684"/>
	<outline>
		<contour>
			<point x="874" y="700" type="line"/>
			<point x="817" y="758" type="line"/>
			<point x="743" y="687" type="line"/>
			<point x="745" y="693" type="line"/>
			<point x="183" y="693" type="line"/>
			<point x="151" y="562" type="line"/>
			<point x="354" y="562" type="line"/>
			<point x="286" y="281" type="line"/>
			<point x="10" y="12" type="line"/>
			<point x="66" y="-46" type="line"/>
			<point x="250" y="132" type="line"/>
			<point x="219" y="0" type="line"/>
			<point x="375" y="0" type="line"/>
			<point x="442" y="281" type="line"/>
		</contour>
		<contour>
			<point x="510" y="562" type="line"/>
			<point x="614" y="562" type="line"/>
			<point x="478" y="431" type="line"/>
		</contour>
	</outline>
</glyph>
<glyph name="uni023F" format="2">
	<unicode hex="023F"/>
	<advance width="483"/>
	<outline>
		<contour>
			<point x="254" y="107" type="curve" smooth="yes"/>
			<point x="210" y="107"/>
			<point x="154" y="121"/>
			<point x="101" y="146" type="curve"/>
			<point x="50" y="32" type="line"/>
			<point x="150" y="-16"/>
			<point x="140" y="-185"/>
			<point x="294" y="-185" type="curve" smooth="yes"/>
			<point x="333" y="-185"/>
			<point x="353" y="-182"/>
			<point x="386" y="-173" type="curve"/>
			<point x="398" y="-64" type="line"/>
			<point x="370" y="-69"/>
			<point x="353" y="-72"/>
			<point x="337" y="-72" type="curve" smooth="yes"/>
			<point x="293" y="-72"/>
			<point x="276" y="-63"/>
			<point x="228" y="1" type="curve"/>
			<point x="243" y="0"/>
			<point x="261" y="0"/>
			<point x="268" y="0" type="curve" smooth="yes"/>
			<point x="389" y="0"/>
			<point x="480" y="54"/>
			<point x="480" y="164" type="curve" smooth="yes"/>
			<point x="480" y="248"/>
			<point x="430" y="283"/>
			<point x="353" y="318" type="curve" smooth="yes"/>
			<point x="310" y="337"/>
			<point x="285" y="348"/>
			<point x="285" y="376" type="curve" smooth="yes"/>
			<point x="285" y="416"/>
			<point x="327" y="422"/>
			<point x="363" y="422" type="curve" smooth="yes"/>
			<point x="406" y="422"/>
			<point x="454" y="406"/>
			<point x="482" y="391" type="curve"/>
			<point x="533" y="502" type="line"/>
			<point x="498" y="521"/>
			<point x="440" y="540"/>
			<point x="369" y="540" type="curve" smooth="yes"/>
			<point x="218" y="540"/>
			<point x="136" y="473"/>
			<point x="136" y="365" type="curve" smooth="yes"/>
			<point x="136" y="283"/>
			<point x="190" y="247"/>
			<point x="257" y="218" type="curve" smooth="yes"/>
			<point x="308" y="195"/>
			<point x="330" y="182"/>
			<point x="330" y="153" type="curve" smooth="yes"/>
			<point x="330" y="122"/>
			<point x="299" y="107"/>
		</contour>
	</outline>
</glyph>
<glyph name="uni0242" format="2">
	<unicode hex="0242"/>
	<advance width="426"/>
	<outline>
		<contour>
			<point x="239" y="0" type="line"/>
			<point x="90" y="0" type="line"/>
			<point x="119" y="122" type="line"/>
			<point x="129" y="165"/>
			<point x="172" y="221"/>
			<point x="225" y="261"/>
			<point x="280" y="289"/>
			<point x="326" y="316"/>
			<point x="355" y="350"/>
			<point x="355" y="375" type="qcurve"/>
			<point x="355" y="395"/>
			<point x="319" y="412"/>
			<point x="292" y="412" type="qcurve"/>
			<point x="273" y="412"/>
			<point x="229" y="405"/>
			<point x="186" y="394"/>
			<point x="149" y="381"/>
			<point x="136" y="375" type="qcurve"/>
			<point x="126" y="496" type="line"/>
			<point x="145" y="504"/>
			<point x="193" y="520"/>
			<point x="247" y="532"/>
			<point x="304" y="540"/>
			<point x="331" y="540" type="qcurve"/>
			<point x="364" y="540"/>
			<point x="424" y="526"/>
			<point x="469" y="494"/>
			<point x="496" y="442"/>
			<point x="496" y="405" type="qcurve"/>
			<point x="496" y="356"/>
			<point x="466" y="290"/>
			<point x="419" y="244"/>
			<point x="363" y="211"/>
			<point x="311" y="179"/>
			<point x="272" y="141"/>
			<point x="265" y="112" type="qcurve"/>
		</contour>
	</outline>
</glyph>
<glyph name="uni0249" format="2">
	<unicode hex="0249"/>
	<advance width="366"/>
	<outline>
		<contour>
			<point x="45" y="-185" type="curve" smooth="yes"/>
			<point x="170" y="-185"/>
			<point x="233" y="-119"/>
			<point x="265" y="19" type="curve" smooth="yes"/>
			<point x="316" y="234" type="line"/>
			<point x="387" y="234" type="line"/>
			<point x="409" y="327" type="line"/>
			<point x="339" y="327" type="line"/>
			<point x="387" y="526" type="line"/>
			<point x="238" y="526" type="line"/>
			<point x="190" y="327" type="line"/>
			<point x="116" y="327" type="line"/>
			<point x="94" y="234" type="line"/>
			<point x="168" y="234" type="line"/>
			<point x="117" y="23" type="line"/>
			<point x="106" y="-30"/>
			<point x="83" y="-59"/>
			<point x="36" y="-59" type="curve" smooth="yes"/>
			<point x="13" y="-59"/>
			<point x="-3" y="-55"/>
			<point x="-22" y="-48" type="curve"/>
			<point x="-60" y="-166" type="line"/>
			<point x="-31" y="-177"/>
			<point x="8" y="-185"/>
		</contour>
		<contour>
			<point x="333" y="590" type="curve" smooth="yes"/>
			<point x="388" y="590"/>
			<point x="436" y="635"/>
			<point x="436" y="691" type="curve" smooth="yes"/>
			<point x="436" y="742"/>
			<point x="396" y="766"/>
			<point x="355" y="766" type="curve" smooth="yes"/>
			<point x="300" y="766"/>
			<point x="252" y="721"/>
			<point x="252" y="665" type="curve" smooth="yes"/>
			<point x="252" y="614"/>
			<point x="292" y="590"/>
		</contour>
	</outline>
</glyph>
<glyph name="uni024A" format="2">
	<unicode hex="024A"/>
	<advance width="789"/>
	<outline>
		<contour>
			<point x="516" y="709" type="curve" smooth="yes"/>
			<point x="271" y="709"/>
			<point x="123" y="484"/>
			<point x="123" y="277" type="curve" smooth="yes"/>
			<point x="123" y="91"/>
			<point x="251" y="-14"/>
			<point x="392" y="-14" type="curve" smooth="yes"/>
			<point x="452" y="-14"/>
			<point x="512" y="4"/>
			<point x="568" y="43" type="curve"/>
			<point x="559" y="5" type="line"/>
			<point x="552" y="-19"/>
			<point x="551" y="-41"/>
			<point x="551" y="-61" type="curve" smooth="yes"/>
			<point x="551" y="-141"/>
			<point x="595" y="-187"/>
			<point x="710" y="-187" type="curve" smooth="yes"/>
			<point x="729" y="-187"/>
			<point x="765" y="-185"/>
			<point x="800" y="-174" type="curve"/>
			<point x="809" y="-53" type="line"/>
			<point x="788" y="-60"/>
			<point x="779" y="-61"/>
			<point x="754" y="-61" type="curve" smooth="yes"/>
			<point x="727" y="-61"/>
			<point x="713" y="-47"/>
			<point x="713" y="-20" type="curve" smooth="yes"/>
			<point x="713" y="-9"/>
			<point x="715" y="5"/>
			<point x="719" y="21" type="curve" smooth="yes"/>
			<point x="770" y="236" type="line" smooth="yes"/>
			<point x="785" y="296"/>
			<point x="793" y="356"/>
			<point x="793" y="416" type="curve" smooth="yes"/>
			<point x="793" y="574"/>
			<point x="728" y="709"/>
		</contour>
		<contour>
			<point x="500" y="575" type="curve" smooth="yes"/>
			<point x="595" y="575"/>
			<point x="634" y="507"/>
			<point x="634" y="407" type="curve" smooth="yes"/>
			<point x="634" y="259"/>
			<point x="540" y="120"/>
			<point x="417" y="120" type="curve" smooth="yes"/>
			<point x="322" y="120"/>
			<point x="283" y="188"/>
			<point x="283" y="288" type="curve" smooth="yes"/>
			<point x="283" y="436"/>
			<point x="377" y="575"/>
		</contour>
	</outline>
</glyph>
<glyph name="uni024E" format="2">
	<unicode hex="024E"/>
	<advance width="652"/>
	<outline>
		<contour>
			<point x="203" y="576" type="line"/>
			<point x="170" y="693" type="line"/>
			<point x="326" y="693" type="line"/>
			<point x="332" y="663"/>
			<point x="346" y="605"/>
			<point x="354" y="576" type="qcurve"/>
			<point x="550" y="576" type="line"/>
			<point x="590" y="631"/>
			<point x="630" y="693" type="qcurve"/>
			<point x="792" y="693" type="line"/>
			<point x="708" y="576" type="line"/>
			<point x="763" y="576" type="line"/>
			<point x="739" y="477" type="line"/>
			<point x="633" y="477" type="line"/>
			<point x="594" y="426"/>
			<point x="513" y="327"/>
			<point x="466" y="274" type="qcurve"/>
			<point x="400" y="0" type="line"/>
			<point x="244" y="0" type="line"/>
			<point x="310" y="274" type="line"/>
			<point x="289" y="326"/>
			<point x="252" y="426"/>
			<point x="235" y="477" type="qcurve"/>
			<point x="129" y="477" type="line"/>
			<point x="152" y="576" type="line"/>
		</contour>
		<contour>
			<point x="408" y="398" type="line"/>
			<point x="422" y="416"/>
			<point x="457" y="457"/>
			<point x="474" y="477" type="qcurve"/>
			<point x="383" y="477" type="line"/>
		</contour>
	</outline>
</glyph>
<glyph name="uni0292" format="2">
	<unicode hex="0292"/>
	<advance width="489"/>
	<outline>
		<contour>
			<point x="178" y="230" type="line"/>
			<point x="199" y="248"/>
			<point x="247" y="293"/>
			<point x="295" y="339"/>
			<point x="341" y="384"/>
			<point x="360" y="402" type="qcurve"/>
			<point x="126" y="402" type="line"/>
			<point x="156" y="526" type="line"/>
			<point x="579" y="526" type="line"/>
			<point x="554" y="424" type="line"/>
			<point x="538" y="408"/>
			<point x="491" y="363"/>
			<point x="436" y="312"/>
			<point x="377" y="258"/>
			<point x="349" y="231" type="qcurve"/>
			<point x="419" y="210"/>
			<point x="484" y="120"/>
			<point x="484" y="63" type="qcurve"/>
			<point x="484" y="18"/>
			<point x="442" y="-71"/>
			<point x="361" y="-142"/>
			<point x="242" y="-185"/>
			<point x="164" y="-185" type="qcurve"/>
			<point x="116" y="-185"/>
			<point x="28" y="-165"/>
			<point x="-10" y="-145" type="qcurve"/>
			<point x="41" y="-26" type="line"/>
			<point x="71" y="-40"/>
			<point x="145" y="-56"/>
			<point x="182" y="-56" type="qcurve"/>
			<point x="217" y="-56"/>
			<point x="274" y="-36"/>
			<point x="314" y="-3"/>
			<point x="336" y="39"/>
			<point x="336" y="62" type="qcurve"/>
			<point x="336" y="97"/>
			<point x="277" y="143"/>
			<point x="211" y="143" type="qcurve"/>
			<point x="157" y="143" type="line"/>
		</contour>
	</outline>
</glyph>
<glyph name="apostrophe" format="2">
	<unicode hex="02BC"/>
	<advance width="272"/>
	<outline>
		<contour>
			<point x="257" y="776" type="line"/>
			<point x="249" y="703"/>
			<point x="230" y="656"/>
			<point x="184" y="584" type="curve"/>
			<point x="273" y="553" type="line"/>
			<point x="332" y="626"/>
			<point x="360" y="668"/>
			<point x="387" y="776" type="curve"/>
		</contour>
	</outline>
</glyph>
<glyph name="tilde" format="2">
	<unicode hex="02DC"/>
	<advance width="373"/>
	<outline>
		<contour>
			<point x="396" y="607" type="curve" smooth="yes"/>
			<point x="457" y="607"/>
			<point x="498" y="642"/>
			<point x="529" y="714" type="curve"/>
			<point x="462" y="755" type="line"/>
			<point x="439" y="722"/>
			<point x="427" y="714"/>
			<point x="408" y="714" type="curve" smooth="yes"/>
			<point x="375" y="714"/>
			<point x="347" y="749"/>
			<point x="297" y="749" type="curve" smooth="yes"/>
			<point x="236" y="749"/>
			<point x="195" y="714"/>
			<point x="164" y="642" type="curve"/>
			<point x="231" y="601" type="line"/>
			<point x="254" y="634"/>
			<point x="266" y="642"/>
			<point x="285" y="642" type="curve" smooth="yes"/>
			<point x="318" y="642"/>
			<point x="346" y="607"/>
		</contour>
	</outline>
</glyph>
<glyph name="uni0394" format="2">
	<unicode hex="0394"/>
	<advance width="705"/>
	<outline>
		<contour>
			<point x="685" y="0" type="line"/>
			<point x="653" y="291"/>
			<point x="628" y="480"/>
			<point x="580" y="693" type="curve"/>
			<point x="442" y="693" type="line"/>
			<point x="290" y="480"/>
			<point x="173" y="293"/>
			<point x="10" y="0" type="curve"/>
		</contour>
		<contour>
			<point x="236" y="130" type="line"/>
			<point x="328" y="297"/>
			<point x="409" y="432"/>
			<point x="477" y="541" type="curve"/>
			<point x="488" y="453"/>
			<point x="501" y="295"/>
			<point x="517" y="130" type="curve"/>
		</contour>
	</outline>
</glyph>
<glyph name="Pi" format="2">
	<unicode hex="03A0"/>
	<advance width="706"/>
	<outline>
		<contour>
			<point x="241" y="693" type="line"/>
			<point x="75" y="0" type="line"/>
			<point x="230" y="0" type="line"/>
			<point x="365" y="561" type="line"/>
			<point x="603" y="561" type="line"/>
			<point x="468" y="0" type="line"/>
			<point x="624" y="0" type="line"/>
			<point x="791" y="693" type="line"/>
		</contour>
	</outline>
</glyph>
<glyph name="Phi" format="2">
	<unicode hex="03A6"/>
	<advance width="830"/>
	<outline>
		<contour>
			<point x="386" y="210" type="line"/>
			<point x="309" y="217"/>
			<point x="274" y="265"/>
			<point x="274" y="341" type="curve" smooth="yes"/>
			<point x="274" y="426"/>
			<point x="343" y="522"/>
			<point x="463" y="535" type="curve"/>
		</contour>
		<contour>
			<point x="335" y="0" type="line"/>
			<point x="487" y="0" type="line"/>
			<point x="507" y="86" type="line"/>
			<point x="752" y="91"/>
			<point x="885" y="266"/>
			<point x="885" y="424" type="curve" smooth="yes"/>
			<point x="885" y="529"/>
			<point x="813" y="635"/>
			<point x="645" y="656" type="curve"/>
			<point x="664" y="738" type="line"/>
			<point x="512" y="738" type="line"/>
			<point x="493" y="656" type="line"/>
			<point x="248" y="651"/>
			<point x="115" y="476"/>
			<point x="115" y="318" type="curve" smooth="yes"/>
			<point x="115" y="215"/>
			<point x="187" y="107"/>
			<point x="355" y="86" type="curve"/>
		</contour>
		<contour>
			<point x="614" y="532" type="line"/>
			<point x="691" y="525"/>
			<point x="726" y="477"/>
			<point x="726" y="401" type="curve" smooth="yes"/>
			<point x="726" y="316"/>
			<point x="657" y="220"/>
			<point x="537" y="207" type="curve"/>
		</contour>
	</outline>
</glyph>
<glyph name="Psi" format="2">
	<unicode hex="03A8"/>
	<advance width="819"/>
	<outline>
		<contour>
			<point x="513" y="165" type="line"/>
			<point x="741" y="173"/>
			<point x="814" y="278"/>
			<point x="856" y="453" type="curve" smooth="yes"/>
			<point x="914" y="693" type="line"/>
			<point x="763" y="693" type="line"/>
			<point x="709" y="471" type="line" smooth="yes"/>
			<point x="680" y="351"/>
			<point x="635" y="299"/>
			<point x="545" y="291" type="curve"/>
			<point x="642" y="693" type="line"/>
			<point x="491" y="693" type="line"/>
			<point x="394" y="291" type="line"/>
			<point x="319" y="299"/>
			<point x="301" y="320"/>
			<point x="301" y="375" type="curve" smooth="yes"/>
			<point x="301" y="399"/>
			<point x="306" y="431"/>
			<point x="316" y="471" type="curve" smooth="yes"/>
			<point x="370" y="693" type="line"/>
			<point x="219" y="693" type="line"/>
			<point x="161" y="453" type="line" smooth="yes"/>
			<point x="154" y="422"/>
			<point x="150" y="394"/>
			<point x="150" y="371" type="curve" smooth="yes"/>
			<point x="150" y="246"/>
			<point x="227" y="180"/>
			<point x="366" y="165" type="curve"/>
			<point x="326" y="0" type="line"/>
			<point x="473" y="0" type="line"/>
		</contour>
	</outline>
</glyph>
<glyph name="gamma" format="2">
	<unicode hex="03B3"/>
	<advance width="531"/>
	<outline>
		<contour>
			<point x="296" y="-185" type="line"/>
			<point x="304" y="-136"/>
			<point x="307" y="-91"/>
			<point x="311" y="-20" type="curve"/>
			<point x="486" y="133"/>
			<point x="573" y="301"/>
			<point x="637" y="526" type="curve"/>
			<point x="483" y="526" type="line"/>
			<point x="446" y="393"/>
			<point x="394" y="256"/>
			<point x="309" y="155" type="curve"/>
			<point x="309" y="269"/>
			<point x="304" y="433"/>
			<point x="288" y="526" type="curve"/>
			<point x="136" y="526" type="line"/>
			<point x="157" y="381"/>
			<point x="172" y="227"/>
			<point x="172" y="60" type="curve" smooth="yes"/>
			<point x="172" y="-17"/>
			<point x="164" y="-101"/>
			<point x="153" y="-185" type="curve"/>
		</contour>
	</outline>
</glyph>
<glyph name="epsilon" format="2">
	<unicode hex="03B5"/>
	<advance width="504"/>
	<outline>
		<contour>
			<point x="90" y="130" type="curve" smooth="yes"/>
			<point x="90" y="23"/>
			<point x="191" y="-14"/>
			<point x="303" y="-14" type="curve" smooth="yes"/>
			<point x="371" y="-14"/>
			<point x="441" y="-1"/>
			<point x="496" y="22" type="curve"/>
			<point x="484" y="139" type="line"/>
			<point x="466" y="129"/>
			<point x="388" y="108"/>
			<point x="325" y="108" type="curve" smooth="yes"/>
			<point x="277" y="108"/>
			<point x="238" y="120"/>
			<point x="238" y="157" type="curve" smooth="yes"/>
			<point x="238" y="189"/>
			<point x="259" y="215"/>
			<point x="330" y="215" type="curve" smooth="yes"/>
			<point x="418" y="215" type="line"/>
			<point x="443" y="321" type="line"/>
			<point x="345" y="321" type="line" smooth="yes"/>
			<point x="305" y="321"/>
			<point x="291" y="338"/>
			<point x="291" y="365" type="curve" smooth="yes"/>
			<point x="291" y="406"/>
			<point x="333" y="418"/>
			<point x="384" y="418" type="curve" smooth="yes"/>
			<point x="429" y="418"/>
			<point x="481" y="408"/>
			<point x="512" y="399" type="curve"/>
			<point x="564" y="506" type="line"/>
			<point x="521" y="527"/>
			<point x="457" y="540"/>
			<point x="390" y="540" type="curve" smooth="yes"/>
			<point x="274" y="540"/>
			<point x="155" y="497"/>
			<point x="155" y="380" type="curve" smooth="yes"/>
			<point x="155" y="339"/>
			<point x="172" y="304"/>
			<point x="203" y="285" type="curve"/>
			<point x="128" y="261"/>
			<point x="90" y="197"/>
		</contour>
	</outline>
</glyph>
<glyph name="zeta" format="2">
	<unicode hex="03B6"/>
	<advance width="509"/>
	<outline>
		<contour>
			<point x="257" y="214" type="curve" smooth="yes"/>
			<point x="257" y="341"/>
			<point x="436" y="520"/>
			<point x="622" y="655" type="curve"/>
			<point x="649" y="769" type="line"/>
			<point x="244" y="769" type="line"/>
			<point x="215" y="645" type="line"/>
			<point x="440" y="645" type="line"/>
			<point x="194" y="460"/>
			<point x="100" y="319"/>
			<point x="100" y="190" type="curve" smooth="yes"/>
			<point x="100" y="65"/>
			<point x="189" y="28"/>
			<point x="288" y="4" type="curve" smooth="yes"/>
			<point x="333" y="-7"/>
			<point x="358" y="-13"/>
			<point x="358" y="-53" type="curve" smooth="yes"/>
			<point x="358" y="-74"/>
			<point x="342" y="-105"/>
			<point x="311" y="-136" type="curve"/>
			<point x="408" y="-190" type="line"/>
			<point x="481" y="-126"/>
			<point x="510" y="-57"/>
			<point x="510" y="-6" type="curve" smooth="yes"/>
			<point x="510" y="147"/>
			<point x="257" y="66"/>
		</contour>
	</outline>
</glyph>
<glyph name="xi" format="2">
	<unicode hex="03BE"/>
	<advance width="488"/>
	<outline>
		<contour>
			<point x="501" y="346" type="line"/>
			<point x="532" y="474" type="line"/>
			<point x="464" y="474" type="line" smooth="yes"/>
			<point x="403" y="474"/>
			<point x="358" y="492"/>
			<point x="358" y="544" type="curve" smooth="yes"/>
			<point x="358" y="612"/>
			<point x="412" y="653"/>
			<point x="484" y="653" type="curve" smooth="yes"/>
			<point x="515" y="653"/>
			<point x="547" y="646"/>
			<point x="579" y="631" type="curve"/>
			<point x="628" y="748" type="line"/>
			<point x="581" y="767"/>
			<point x="533" y="776"/>
			<point x="483" y="776" type="curve" smooth="yes"/>
			<point x="303" y="776"/>
			<point x="213" y="659"/>
			<point x="213" y="553" type="curve" smooth="yes"/>
			<point x="213" y="502"/>
			<point x="234" y="450"/>
			<point x="286" y="421" type="curve"/>
			<point x="154" y="392"/>
			<point x="90" y="278"/>
			<point x="90" y="181" type="curve" smooth="yes"/>
			<point x="90" y="109"/>
			<point x="124" y="45"/>
			<point x="199" y="22" type="curve" smooth="yes"/>
			<point x="225" y="14" type="line" smooth="yes"/>
			<point x="278" y="-2"/>
			<point x="330" y="-5"/>
			<point x="330" y="-49" type="curve" smooth="yes"/>
			<point x="330" y="-76"/>
			<point x="312" y="-105"/>
			<point x="283" y="-136" type="curve"/>
			<point x="380" y="-190" type="line"/>
			<point x="433" y="-142"/>
			<point x="482" y="-73"/>
			<point x="482" y="-6" type="curve" smooth="yes"/>
			<point x="482" y="145"/>
			<point x="249" y="59"/>
			<point x="249" y="200" type="curve" smooth="yes"/>
			<point x="249" y="259"/>
			<point x="309" y="346"/>
			<point x="446" y="346" type="curve" smooth="yes"/>
		</contour>
	</outline>
</glyph>
<glyph name="phi" format="2">
	<unicode hex="03C6"/>
	<advance width="778"/>
	<outline>
		<contour>
			<point x="110" y="225" type="curve" smooth="yes"/>
			<point x="110" y="108"/>
			<point x="180" y="16"/>
			<point x="323" y="-8" type="curve"/>
			<point x="281" y="-185" type="line"/>
			<point x="422" y="-185" type="line"/>
			<point x="464" y="-11" type="line"/>
			<point x="686" y="-6"/>
			<point x="808" y="152"/>
			<point x="808" y="295" type="curve" smooth="yes"/>
			<point x="808" y="467"/>
			<point x="667" y="540"/>
			<point x="511" y="540" type="curve" smooth="yes"/>
			<point x="305" y="540"/>
			<point x="110" y="437"/>
		</contour>
		<contour>
			<point x="352" y="106" type="line"/>
			<point x="289" y="119"/>
			<point x="261" y="175"/>
			<point x="261" y="225" type="curve" smooth="yes"/>
			<point x="261" y="327"/>
			<point x="335" y="414"/>
			<point x="428" y="422" type="curve"/>
		</contour>
		<contour>
			<point x="564" y="412" type="line"/>
			<point x="627" y="399"/>
			<point x="655" y="343"/>
			<point x="655" y="293" type="curve" smooth="yes"/>
			<point x="655" y="191"/>
			<point x="581" y="104"/>
			<point x="488" y="96" type="curve"/>
		</contour>
	</outline>
</glyph>
<glyph name="psi" format="2">
	<unicode hex="03C8"/>
	<advance width="780"/>
	<outline>
		<contour>
			<point x="440" y="526" type="line"/>
			<point x="341" y="116" type="line"/>
			<point x="276" y="117"/>
			<point x="258" y="157"/>
			<point x="258" y="205" type="curve" smooth="yes"/>
			<point x="258" y="228"/>
			<point x="261" y="254"/>
			<point x="268" y="278" type="curve"/>
			<point x="328" y="526" type="line"/>
			<point x="181" y="526" type="line"/>
			<point x="120" y="271" type="line"/>
			<point x="113" y="245"/>
			<point x="110" y="220"/>
			<point x="110" y="195" type="curve" smooth="yes"/>
			<point x="110" y="78"/>
			<point x="186" y="2"/>
			<point x="311" y="-10" type="curve"/>
			<point x="269" y="-185" type="line"/>
			<point x="414" y="-185" type="line"/>
			<point x="456" y="-10" type="line"/>
			<point x="667" y="-10"/>
			<point x="750" y="128"/>
			<point x="784" y="271" type="curve" smooth="yes"/>
			<point x="845" y="526" type="line"/>
			<point x="698" y="526" type="line"/>
			<point x="638" y="278" type="line"/>
			<point x="609" y="163"/>
			<point x="556" y="124"/>
			<point x="486" y="116" type="curve"/>
			<point x="585" y="526" type="line"/>
		</contour>
	</outline>
</glyph>
<glyph name="afii10053" format="2">
	<unicode hex="0404"/>
	<advance width="677"/>
	<outline>
		<contour>
			<point x="752" y="660" type="line"/>
			<point x="684" y="695"/>
			<point x="614" y="710"/>
			<point x="546" y="710" type="curve" smooth="yes"/>
			<point x="253" y="710"/>
			<point x="123" y="486"/>
			<point x="123" y="289" type="curve" smooth="yes"/>
			<point x="123" y="93"/>
			<point x="225" y="-14"/>
			<point x="412" y="-14" type="curve" smooth="yes"/>
			<point x="492" y="-14"/>
			<point x="559" y="2"/>
			<point x="647" y="37" type="curve"/>
			<point x="627" y="166" type="line"/>
			<point x="570" y="141"/>
			<point x="501" y="122"/>
			<point x="440" y="122" type="curve" smooth="yes"/>
			<point x="353" y="122"/>
			<point x="282" y="161"/>
			<point x="282" y="286" type="curve"/>
			<point x="553" y="286" type="line"/>
			<point x="585" y="418" type="line"/>
			<point x="308" y="418" type="line"/>
			<point x="345" y="526"/>
			<point x="426" y="574"/>
			<point x="525" y="574" type="curve" smooth="yes"/>
			<point x="576" y="574"/>
			<point x="632" y="560"/>
			<point x="688" y="536" type="curve"/>
		</contour>
	</outline>
</glyph>
<glyph name="afii10058" format="2">
	<unicode hex="0409"/>
	<advance width="1044"/>
	<outline>
		<contour>
			<point x="615" y="561" type="line"/>
			<point x="484" y="16" type="line"/>
			<point x="543" y="1"/>
			<point x="619" y="-7"/>
			<point x="690" y="-7" type="curve" smooth="yes"/>
			<point x="870" y="-7"/>
			<point x="1054" y="53"/>
			<point x="1054" y="253" type="curve" smooth="yes"/>
			<point x="1054" y="378"/>
			<point x="985" y="447"/>
			<point x="793" y="447" type="curve" smooth="yes"/>
			<point x="742" y="447" type="line"/>
			<point x="801" y="693" type="line"/>
			<point x="349" y="693" type="line"/>
			<point x="281" y="413"/>
			<point x="239" y="138"/>
			<point x="40" y="122" type="curve"/>
			<point x="55" y="-14" type="line"/>
			<point x="310" y="2"/>
			<point x="377" y="190"/>
			<point x="465" y="561" type="curve"/>
		</contour>
		<contour>
			<point x="713" y="318" type="line"/>
			<point x="768" y="318" type="line" smooth="yes"/>
			<point x="865" y="318"/>
			<point x="893" y="284"/>
			<point x="893" y="238" type="curve" smooth="yes"/>
			<point x="893" y="183"/>
			<point x="862" y="124"/>
			<point x="729" y="124" type="curve" smooth="yes"/>
			<point x="706" y="124"/>
			<point x="685" y="125"/>
			<point x="668" y="128" type="curve"/>
		</contour>
	</outline>
</glyph>
<glyph name="afii10021" format="2">
	<unicode hex="0414"/>
	<advance width="841"/>
	<outline>
		<contour>
			<point x="-2" y="-185" type="line"/>
			<point x="147" y="-185" type="line"/>
			<point x="192" y="0" type="line"/>
			<point x="654" y="0" type="line"/>
			<point x="609" y="-185" type="line"/>
			<point x="759" y="-185" type="line"/>
			<point x="835" y="132" type="line"/>
			<point x="716" y="132" type="line"/>
			<point x="851" y="693" type="line"/>
			<point x="398" y="693" type="line"/>
			<point x="380" y="613" type="line" smooth="yes"/>
			<point x="346" y="462"/>
			<point x="284" y="246"/>
			<point x="165" y="132" type="curve"/>
			<point x="74" y="132" type="line"/>
		</contour>
		<contour>
			<point x="667" y="561" type="line"/>
			<point x="564" y="132" type="line"/>
			<point x="342" y="132" type="line"/>
			<point x="437" y="264"/>
			<point x="468" y="379"/>
			<point x="513" y="561" type="curve"/>
		</contour>
	</outline>
</glyph>
<glyph name="afii10026" format="2">
	<unicode hex="0418"/>
	<advance width="732"/>
	<outline>
		<contour>
			<point x="205" y="0" type="line"/>
			<point x="333" y="158"/>
			<point x="452" y="293"/>
			<point x="605" y="454" type="curve"/>
			<point x="496" y="0" type="line"/>
			<point x="650" y="0" type="line"/>
			<point x="817" y="693" type="line"/>
			<point x="690" y="693" type="line"/>
			<point x="569" y="586"/>
			<point x="428" y="429"/>
			<point x="297" y="284" type="curve"/>
			<point x="396" y="693" type="line"/>
			<point x="241" y="693" type="line"/>
			<point x="75" y="0" type="line"/>
		</contour>
	</outline>
</glyph>
<glyph name="afii10037" format="2">
	<unicode hex="0423"/>
	<advance width="620"/>
	<outline>
		<contour>
			<point x="184" y="119" type="curve" smooth="yes"/>
			<point x="158" y="119"/>
			<point x="133" y="124"/>
			<point x="109" y="135" type="curve"/>
			<point x="60" y="12" type="line"/>
			<point x="99" y="-5"/>
			<point x="139" y="-14"/>
			<point x="180" y="-14" type="curve" smooth="yes"/>
			<point x="293" y="-14"/>
			<point x="375" y="48"/>
			<point x="442" y="141" type="curve" smooth="yes"/>
			<point x="542" y="281"/>
			<point x="660" y="476"/>
			<point x="780" y="693" type="curve"/>
			<point x="613" y="693" type="line"/>
			<point x="537" y="550"/>
			<point x="477" y="431"/>
			<point x="421" y="338" type="curve"/>
			<point x="390" y="459"/>
			<point x="368" y="585"/>
			<point x="356" y="693" type="curve"/>
			<point x="183" y="693" type="line"/>
			<point x="207" y="542"/>
			<point x="258" y="346"/>
			<point x="314" y="187" type="curve"/>
			<point x="296" y="168" type="line" smooth="yes"/>
			<point x="261" y="133"/>
			<point x="224" y="119"/>
		</contour>
	</outline>
</glyph>
<glyph name="afii10044" format="2">
	<unicode hex="042A"/>
	<advance width="736"/>
	<outline>
		<contour>
			<point x="177" y="693" type="line"/>
			<point x="145" y="561" type="line"/>
			<point x="308" y="561" type="line"/>
			<point x="177" y="16" type="line"/>
			<point x="236" y="1"/>
			<point x="312" y="-9"/>
			<point x="383" y="-9" type="curve" smooth="yes"/>
			<point x="658" y="-9"/>
			<point x="746" y="126"/>
			<point x="746" y="253" type="curve" smooth="yes"/>
			<point x="746" y="361"/>
			<point x="703" y="465"/>
			<point x="496" y="465" type="curve" smooth="yes"/>
			<point x="481" y="465"/>
			<point x="450" y="463"/>
			<point x="441" y="462" type="curve"/>
			<point x="496" y="693" type="line"/>
		</contour>
		<contour>
			<point x="410" y="333" type="line"/>
			<point x="434" y="336"/>
			<point x="464" y="336"/>
			<point x="471" y="336" type="curve" smooth="yes"/>
			<point x="563" y="336"/>
			<point x="586" y="292"/>
			<point x="586" y="244" type="curve" smooth="yes"/>
			<point x="586" y="185"/>
			<point x="548" y="123"/>
			<point x="423" y="123" type="curve" smooth="yes"/>
			<point x="400" y="123"/>
			<point x="377" y="124"/>
			<point x="360" y="127" type="curve"/>
		</contour>
	</outline>
</glyph>
<glyph name="afii10047" format="2">
	<unicode hex="042D"/>
	<advance width="652"/>
	<outline>
		<contour>
			<point x="216" y="538" type="line"/>
			<point x="263" y="558"/>
			<point x="324" y="574"/>
			<point x="380" y="574" type="curve" smooth="yes"/>
			<point x="460" y="574"/>
			<point x="539" y="540"/>
			<point x="539" y="435" type="curve" smooth="yes"/>
			<point x="539" y="418" type="line"/>
			<point x="273" y="418" type="line"/>
			<point x="240" y="286" type="line"/>
			<point x="517" y="286" type="line"/>
			<point x="482" y="185"/>
			<point x="406" y="119"/>
			<point x="282" y="119" type="curve" smooth="yes"/>
			<point x="231" y="119"/>
			<point x="187" y="128"/>
			<point x="131" y="157" type="curve"/>
			<point x="65" y="36" type="line"/>
			<point x="128" y="3"/>
			<point x="199" y="-14"/>
			<point x="274" y="-14" type="curve" smooth="yes"/>
			<point x="494" y="-14"/>
			<point x="690" y="119"/>
			<point x="690" y="450" type="curve" smooth="yes"/>
			<point x="690" y="639"/>
			<point x="558" y="709"/>
			<point x="415" y="709" type="curve" smooth="yes"/>
			<point x="343" y="709"/>
			<point x="270" y="692"/>
			<point x="206" y="665" type="curve"/>
		</contour>
	</outline>
</glyph>
<glyph name="afii10091" format="2">
	<unicode hex="0449"/>
	<advance width="871"/>
	<outline>
		<contour>
			<point x="901" y="526" type="line"/>
			<point x="752" y="526" type="line"/>
			<point x="685" y="246" type="line" smooth="yes"/>
			<point x="677" y="215"/>
			<point x="671" y="157"/>
			<point x="671" y="149" type="curve"/>
			<point x="648" y="126"/>
			<point x="622" y="114"/>
			<point x="601" y="114" type="curve" smooth="yes"/>
			<point x="550" y="114"/>
			<point x="538" y="145"/>
			<point x="538" y="182" type="curve" smooth="yes"/>
			<point x="538" y="205"/>
			<point x="543" y="229"/>
			<point x="548" y="248" type="curve" smooth="yes"/>
			<point x="614" y="526" type="line"/>
			<point x="465" y="526" type="line"/>
			<point x="397" y="242" type="line" smooth="yes"/>
			<point x="390" y="215"/>
			<point x="386" y="188"/>
			<point x="387" y="164" type="curve" smooth="yes"/>
			<point x="387" y="156"/>
			<point x="386" y="147"/>
			<point x="389" y="136" type="curve"/>
			<point x="369" y="125"/>
			<point x="343" y="113"/>
			<point x="315" y="113" type="curve" smooth="yes"/>
			<point x="264" y="113"/>
			<point x="251" y="145"/>
			<point x="251" y="182" type="curve" smooth="yes"/>
			<point x="251" y="205"/>
			<point x="256" y="229"/>
			<point x="261" y="248" type="curve" smooth="yes"/>
			<point x="327" y="526" type="line"/>
			<point x="178" y="526" type="line"/>
			<point x="110" y="242" type="line" smooth="yes"/>
			<point x="103" y="215"/>
			<point x="100" y="188"/>
			<point x="100" y="164" type="curve" smooth="yes"/>
			<point x="100" y="59"/>
			<point x="153" y="-12"/>
			<point x="278" y="-12" type="curve" smooth="yes"/>
			<point x="343" y="-12"/>
			<point x="388" y="8"/>
			<point x="437" y="36" type="curve"/>
			<point x="476" y="3"/>
			<point x="517" y="-12"/>
			<point x="558" y="-12" type="curve" smooth="yes"/>
			<point x="615" y="-12"/>
			<point x="656" y="11"/>
			<point x="699" y="46" type="curve"/>
			<point x="706" y="31"/>
			<point x="718" y="17"/>
			<point x="737" y="9" type="curve"/>
			<point x="698" y="-150" type="line"/>
			<point x="824" y="-150" type="line"/>
			<point x="883" y="80" type="line"/>
			<point x="832" y="88"/>
			<point x="816" y="108"/>
			<point x="816" y="143" type="curve" smooth="yes"/>
			<point x="816" y="166"/>
			<point x="826" y="208"/>
			<point x="831" y="229" type="curve" smooth="yes"/>
		</contour>
	</outline>
</glyph>
<glyph name="afii10101" format="2">
	<unicode hex="0454"/>
	<advance width="489"/>
	<outline>
		<contour>
			<point x="566" y="506" type="line"/>
			<point x="514" y="530"/>
			<point x="462" y="540"/>
			<point x="413" y="540" type="curve" smooth="yes"/>
			<point x="240" y="540"/>
			<point x="100" y="408"/>
			<point x="100" y="215" type="curve" smooth="yes"/>
			<point x="100" y="47"/>
			<point x="209" y="-14"/>
			<point x="334" y="-14" type="curve" smooth="yes"/>
			<point x="377" y="-14"/>
			<point x="433" y="-5"/>
			<point x="489" y="22" type="curve"/>
			<point x="481" y="143" type="line"/>
			<point x="457" y="130"/>
			<point x="401" y="112"/>
			<point x="351" y="112" type="curve" smooth="yes"/>
			<point x="291" y="112"/>
			<point x="234" y="136"/>
			<point x="234" y="213" type="curve"/>
			<point x="420" y="213" type="line"/>
			<point x="445" y="320" type="line"/>
			<point x="256" y="320" type="line"/>
			<point x="275" y="392"/>
			<point x="340" y="420"/>
			<point x="407" y="420" type="curve" smooth="yes"/>
			<point x="448" y="420"/>
			<point x="489" y="409"/>
			<point x="517" y="392" type="curve"/>
		</contour>
	</outline>
</glyph>
<glyph name="uni0463" format="2">
	<unicode hex="0463"/>
	<advance width="825"/>
	<outline>
		<contour>
			<point x="70" y="0" type="line"/>
			<point x="219" y="0" type="line"/>
			<point x="316" y="407" type="line"/>
			<point x="336" y="411"/>
			<point x="356" y="413"/>
			<point x="375" y="413" type="curve" smooth="yes"/>
			<point x="427" y="413"/>
			<point x="440" y="385"/>
			<point x="440" y="350" type="curve" smooth="yes"/>
			<point x="440" y="331"/>
			<point x="436" y="312"/>
			<point x="432" y="293" type="curve" smooth="yes"/>
			<point x="367" y="16" type="line"/>
			<point x="441" y="-2"/>
			<point x="510" y="-11"/>
			<point x="575" y="-11" type="curve" smooth="yes"/>
			<point x="766" y="-11"/>
			<point x="855" y="77"/>
			<point x="855" y="189" type="curve" smooth="yes"/>
			<point x="855" y="289"/>
			<point x="792" y="347"/>
			<point x="673" y="347" type="curve" smooth="yes"/>
			<point x="646" y="347"/>
			<point x="616" y="342"/>
			<point x="589" y="338" type="curve"/>
			<point x="590" y="349"/>
			<point x="591" y="357"/>
			<point x="591" y="368" type="curve" smooth="yes"/>
			<point x="591" y="476"/>
			<point x="528" y="538"/>
			<point x="403" y="538" type="curve" smooth="yes"/>
			<point x="298" y="538"/>
			<point x="236" y="518"/>
			<point x="191" y="502" type="curve"/>
		</contour>
		<contour>
			<point x="629" y="235" type="curve" smooth="yes"/>
			<point x="686" y="235"/>
			<point x="714" y="216"/>
			<point x="714" y="179" type="curve" smooth="yes"/>
			<point x="714" y="132"/>
			<point x="674" y="104"/>
			<point x="597" y="104" type="curve" smooth="yes"/>
			<point x="577" y="104"/>
			<point x="557" y="105"/>
			<point x="538" y="108" type="curve"/>
			<point x="566" y="228" type="line"/>
			<point x="581" y="232"/>
			<point x="606" y="235"/>
		</contour>
	</outline>
</glyph>
<glyph name="uni0473" format="2">
	<unicode hex="0473"/>
	<advance width="574"/>
	<outline>
		<contour>
			<point x="308" y="-14" type="curve" smooth="yes"/>
			<point x="503" y="-14"/>
			<point x="604" y="164"/>
			<point x="604" y="323" type="curve" smooth="yes"/>
			<point x="604" y="450"/>
			<point x="536" y="540"/>
			<point x="396" y="540" type="curve" smooth="yes"/>
			<point x="207" y="540"/>
			<point x="100" y="362"/>
			<point x="100" y="203" type="curve" smooth="yes"/>
			<point x="100" y="76"/>
			<point x="168" y="-14"/>
		</contour>
		<contour>
			<point x="279" y="252" type="curve" smooth="yes"/>
			<point x="312" y="252"/>
			<point x="350" y="208"/>
			<point x="395" y="208" type="curve" smooth="yes"/>
			<point x="406" y="208"/>
			<point x="420" y="210"/>
			<point x="439" y="217" type="curve"/>
			<point x="419" y="160"/>
			<point x="379" y="112"/>
			<point x="322" y="112" type="curve" smooth="yes"/>
			<point x="266" y="112"/>
			<point x="248" y="151"/>
			<point x="248" y="218" type="curve" smooth="yes"/>
			<point x="248" y="227"/>
			<point x="248" y="236"/>
			<point x="249" y="247" type="curve"/>
			<point x="258" y="250"/>
			<point x="268" y="252"/>
		</contour>
		<contour>
			<point x="382" y="414" type="curve" smooth="yes"/>
			<point x="438" y="414"/>
			<point x="456" y="375"/>
			<point x="456" y="308" type="curve" smooth="yes"/>
			<point x="456" y="301"/>
			<point x="455" y="293"/>
			<point x="455" y="286" type="curve"/>
			<point x="444" y="282"/>
			<point x="434" y="280"/>
			<point x="426" y="280" type="curve" smooth="yes"/>
			<point x="393" y="280"/>
			<point x="355" y="324"/>
			<point x="310" y="324" type="curve" smooth="yes"/>
			<point x="297" y="324"/>
			<point x="282" y="321"/>
			<point x="266" y="314" type="curve"/>
			<point x="287" y="369"/>
			<point x="326" y="414"/>
		</contour>
	</outline>
</glyph>
<glyph name="uni0475" format="2">
	<unicode hex="0475"/>
	<advance width="589"/>
	<outline>
		<contour>
			<point x="186" y="0" type="line"/>
			<point x="160" y="100"/>
			<point x="118" y="368"/>
			<point x="110" y="526" type="qcurve"/>
			<point x="264" y="526" type="line"/>
			<point x="265" y="487"/>
			<point x="269" y="394"/>
			<point x="275" y="300"/>
			<point x="283" y="211"/>
			<point x="288" y="175" type="qcurve"/>
			<point x="430" y="417" type="line"/>
			<point x="469" y="483"/>
			<point x="551" y="534"/>
			<point x="599" y="534" type="qcurve"/>
			<point x="634" y="534"/>
			<point x="679" y="517"/>
			<point x="699" y="504" type="qcurve"/>
			<point x="647" y="405" type="line"/>
			<point x="623" y="418"/>
			<point x="605" y="418" type="qcurve"/>
			<point x="569" y="418"/>
			<point x="542" y="374" type="qcurve"/>
			<point x="310" y="0" type="line"/>
		</contour>
	</outline>
</glyph>
<glyph name="uni048B" format="2">
	<unicode hex="048B"/>
	<advance width="611"/>
	<outline>
		<contour>
			<point x="472" y="526" type="line"/>
			<point x="407" y="253" type="line" smooth="yes"/>
			<point x="400" y="222"/>
			<point x="394" y="183"/>
			<point x="391" y="150" type="curve"/>
			<point x="362" y="122"/>
			<point x="338" y="112"/>
			<point x="307" y="112" type="curve" smooth="yes"/>
			<point x="235" y="112"/>
			<point x="248" y="186"/>
			<point x="261" y="244" type="curve"/>
			<point x="328" y="526" type="line"/>
			<point x="179" y="526" type="line"/>
			<point x="111" y="242" type="line"/>
			<point x="79" y="113"/>
			<point x="114" y="-12"/>
			<point x="270" y="-12" type="curve" smooth="yes"/>
			<point x="327" y="-12"/>
			<point x="378" y="13"/>
			<point x="417" y="46" type="curve"/>
			<point x="426" y="26"/>
			<point x="440" y="17"/>
			<point x="455" y="9" type="curve"/>
			<point x="430" y="-40"/>
			<point x="410" y="-61"/>
			<point x="366" y="-96" type="curve"/>
			<point x="449" y="-166" type="line"/>
			<point x="546" y="-94"/>
			<point x="592" y="-16"/>
			<point x="616" y="80" type="curve"/>
			<point x="536" y="91"/>
			<point x="528" y="136"/>
			<point x="544" y="199" type="curve" smooth="yes"/>
			<point x="555" y="246" type="line"/>
			<point x="621" y="526" type="line"/>
		</contour>
		<contour>
			<point x="412" y="598" type="curve" smooth="yes"/>
			<point x="508" y="598"/>
			<point x="576" y="641"/>
			<point x="608" y="734" type="curve"/>
			<point x="514" y="766" type="line"/>
			<point x="490" y="713"/>
			<point x="464" y="698"/>
			<point x="429" y="698" type="curve" smooth="yes"/>
			<point x="396" y="698"/>
			<point x="370" y="716"/>
			<point x="369" y="767" type="curve"/>
			<point x="264" y="741" type="line"/>
			<point x="267" y="650"/>
			<point x="330" y="598"/>
		</contour>
	</outline>
</glyph>
<glyph name="uni048D" format="2">
	<unicode hex="048D"/>
	<advance width="533"/>
	<outline>
		<contour>
			<point x="337" y="487" type="line"/>
			<point x="351" y="546" type="line"/>
			<point x="202" y="546" type="line"/>
			<point x="188" y="487" type="line"/>
			<point x="126" y="487" type="line"/>
			<point x="104" y="394" type="line"/>
			<point x="165" y="394" type="line"/>
			<point x="75" y="16" type="line"/>
			<point x="149" y="-2"/>
			<point x="218" y="-11"/>
			<point x="283" y="-11" type="curve" smooth="yes"/>
			<point x="474" y="-11"/>
			<point x="563" y="77"/>
			<point x="563" y="189" type="curve" smooth="yes"/>
			<point x="563" y="289"/>
			<point x="498" y="337"/>
			<point x="379" y="337" type="curve" smooth="yes"/>
			<point x="354" y="337"/>
			<point x="328" y="334"/>
			<point x="299" y="329" type="curve"/>
			<point x="314" y="394" type="line"/>
			<point x="458" y="394" type="line"/>
			<point x="480" y="487" type="line"/>
		</contour>
		<contour>
			<point x="337" y="235" type="curve" smooth="yes"/>
			<point x="394" y="235"/>
			<point x="422" y="216"/>
			<point x="422" y="179" type="curve" smooth="yes"/>
			<point x="422" y="132"/>
			<point x="382" y="104"/>
			<point x="305" y="104" type="curve" smooth="yes"/>
			<point x="285" y="104"/>
			<point x="265" y="105"/>
			<point x="246" y="108" type="curve"/>
			<point x="274" y="228" type="line"/>
			<point x="289" y="232"/>
			<point x="314" y="235"/>
		</contour>
	</outline>
</glyph>
<glyph name="uni048F" format="2">
	<unicode hex="048F"/>
	<advance width="590"/>
	<outline>
		<contour>
			<point x="379" y="0" type="line"/>
			<point x="359" y="-5"/>
			<point x="316" y="-10"/>
			<point x="293" y="-10" type="qcurve"/>
			<point x="276" y="-10"/>
			<point x="235" y="-7"/>
			<point x="218" y="-4" type="qcurve"/>
			<point x="173" y="-185" type="line"/>
			<point x="25" y="-185" type="line"/>
			<point x="191" y="507" type="line"/>
			<point x="231" y="519"/>
			<point x="341" y="538"/>
			<point x="401" y="538" type="qcurve"/>
			<point x="457" y="538"/>
			<point x="540" y="504"/>
			<point x="594" y="445"/>
			<point x="620" y="366"/>
			<point x="620" y="321" type="qcurve"/>
			<point x="620" y="228"/>
			<point x="542" y="84"/>
			<point x="476" y="41" type="qcurve"/>
			<point x="518" y="-74" type="line"/>
			<point x="420" y="-112" type="line"/>
		</contour>
		<contour>
			<point x="245" y="116" type="line"/>
			<point x="256" y="114"/>
			<point x="283" y="112"/>
			<point x="294" y="112" type="qcurve"/>
			<point x="319" y="112"/>
			<point x="336" y="116" type="qcurve"/>
			<point x="304" y="205" type="line"/>
			<point x="402" y="243" type="line"/>
			<point x="427" y="173" type="line"/>
			<point x="448" y="199"/>
			<point x="472" y="268"/>
			<point x="472" y="310" type="qcurve"/>
			<point x="472" y="353"/>
			<point x="429" y="413"/>
			<point x="382" y="413" type="qcurve"/>
			<point x="366" y="413"/>
			<point x="329" y="410"/>
			<point x="315" y="407" type="qcurve"/>
		</contour>
	</outline>
</glyph>
<glyph name="uni049C" format="2">
	<unicode hex="049C"/>
	<advance width="792"/>
	<outline>
		<contour>
			<point x="511" y="567" type="line"/>
			<point x="414" y="567" type="line"/>
			<point x="378" y="418" type="line"/>
			<point x="330" y="418" type="line"/>
			<point x="397" y="693" type="line"/>
			<point x="241" y="693" type="line"/>
			<point x="75" y="0" type="line"/>
			<point x="230" y="0" type="line"/>
			<point x="304" y="306" type="line"/>
			<point x="351" y="306" type="line"/>
			<point x="316" y="159" type="line"/>
			<point x="413" y="159" type="line"/>
			<point x="448" y="306" type="line"/>
			<point x="449" y="306" type="line"/>
			<point x="508" y="239"/>
			<point x="558" y="102"/>
			<point x="588" y="0" type="curve"/>
			<point x="753" y="0" type="line"/>
			<point x="702" y="154"/>
			<point x="653" y="259"/>
			<point x="577" y="356" type="curve"/>
			<point x="700" y="469"/>
			<point x="812" y="580"/>
			<point x="916" y="693" type="curve"/>
			<point x="742" y="693" type="line"/>
			<point x="654" y="601"/>
			<point x="572" y="510"/>
			<point x="476" y="418" type="curve"/>
			<point x="475" y="418" type="line"/>
		</contour>
	</outline>
</glyph>
<glyph name="uni049F" format="2">
	<unicode hex="049F"/>
	<advance width="589"/>
	<outline>
		<contour>
			<point x="126" y="526" type="line"/>
			<point x="196" y="526" type="line"/>
			<point x="207" y="571" type="line"/>
			<point x="356" y="571" type="line"/>
			<point x="345" y="526" type="line"/>
			<point x="420" y="526" type="line"/>
			<point x="403" y="453" type="line"/>
			<point x="327" y="453" type="line"/>
			<point x="297" y="326" type="line"/>
			<point x="324" y="350"/>
			<point x="387" y="405"/>
			<point x="448" y="459"/>
			<point x="501" y="508"/>
			<point x="519" y="526" type="qcurve"/>
			<point x="699" y="526" type="line"/>
			<point x="643" y="464"/>
			<point x="500" y="335"/>
			<point x="413" y="269" type="qcurve"/>
			<point x="436" y="243"/>
			<point x="486" y="176"/>
			<point x="533" y="105"/>
			<point x="572" y="32"/>
			<point x="583" y="0" type="qcurve"/>
			<point x="414" y="0" type="line"/>
			<point x="403" y="27"/>
			<point x="371" y="87"/>
			<point x="334" y="145"/>
			<point x="292" y="198"/>
			<point x="271" y="220" type="qcurve"/>
			<point x="218" y="0" type="line"/>
			<point x="70" y="0" type="line"/>
			<point x="178" y="453" type="line"/>
			<point x="109" y="453" type="line"/>
		</contour>
	</outline>
</glyph>
<glyph name="uni04A7" format="2">
	<unicode hex="04A7"/>
	<advance width="852"/>
	<outline>
		<contour>
			<point x="70" y="0" type="line"/>
			<point x="219" y="0" type="line"/>
			<point x="316" y="407" type="line"/>
			<point x="336" y="411"/>
			<point x="356" y="413"/>
			<point x="375" y="413" type="curve" smooth="yes"/>
			<point x="455" y="413"/>
			<point x="445" y="347"/>
			<point x="429" y="278" type="curve" smooth="yes"/>
			<point x="363" y="0" type="line"/>
			<point x="512" y="0" type="line"/>
			<point x="561" y="205" type="line"/>
			<point x="580" y="209"/>
			<point x="600" y="212"/>
			<point x="620" y="212" type="curve" smooth="yes"/>
			<point x="671" y="212"/>
			<point x="714" y="190"/>
			<point x="714" y="119" type="curve" smooth="yes"/>
			<point x="714" y="15"/>
			<point x="673" y="-74"/>
			<point x="560" y="-74" type="curve" smooth="yes"/>
			<point x="549" y="-74"/>
			<point x="537" y="-73"/>
			<point x="524" y="-71" type="curve"/>
			<point x="493" y="-176" type="line"/>
			<point x="515" y="-183"/>
			<point x="538" y="-186"/>
			<point x="563" y="-186" type="curve" smooth="yes"/>
			<point x="774" y="-186"/>
			<point x="852" y="-17"/>
			<point x="852" y="127" type="curve" smooth="yes"/>
			<point x="852" y="235"/>
			<point x="800" y="327"/>
			<point x="668" y="327" type="curve" smooth="yes"/>
			<point x="641" y="327"/>
			<point x="614" y="324"/>
			<point x="587" y="317" type="curve"/>
			<point x="610" y="456"/>
			<point x="547" y="538"/>
			<point x="403" y="538" type="curve" smooth="yes"/>
			<point x="297" y="538"/>
			<point x="237" y="516"/>
			<point x="191" y="502" type="curve"/>
		</contour>
	</outline>
</glyph>
<glyph name="uni04AD" format="2">
	<unicode hex="04AD"/>
	<advance width="912"/>
	<outline>
		<contour>
			<point x="70" y="0" type="line"/>
			<point x="219" y="0" type="line"/>
			<point x="316" y="407" type="line"/>
			<point x="336" y="411"/>
			<point x="348" y="413"/>
			<point x="369" y="413" type="curve" smooth="yes"/>
			<point x="420" y="413"/>
			<point x="433" y="381"/>
			<point x="433" y="344" type="curve" smooth="yes"/>
			<point x="433" y="321"/>
			<point x="427" y="297"/>
			<point x="423" y="278" type="curve" smooth="yes"/>
			<point x="357" y="0" type="line"/>
			<point x="506" y="0" type="line"/>
			<point x="574" y="284" type="line" smooth="yes"/>
			<point x="581" y="311"/>
			<point x="584" y="338"/>
			<point x="584" y="362" type="curve" smooth="yes"/>
			<point x="584" y="370"/>
			<point x="585" y="379"/>
			<point x="582" y="390" type="curve"/>
			<point x="602" y="401"/>
			<point x="628" y="413"/>
			<point x="656" y="413" type="curve" smooth="yes"/>
			<point x="707" y="413"/>
			<point x="720" y="381"/>
			<point x="720" y="344" type="curve" smooth="yes"/>
			<point x="720" y="321"/>
			<point x="714" y="297"/>
			<point x="710" y="278" type="curve" smooth="yes"/>
			<point x="644" y="0" type="line"/>
			<point x="763" y="0" type="line"/>
			<point x="728" y="-145" type="line"/>
			<point x="855" y="-145" type="line"/>
			<point x="919" y="122" type="line"/>
			<point x="822" y="122" type="line"/>
			<point x="861" y="284" type="line" smooth="yes"/>
			<point x="868" y="311"/>
			<point x="871" y="338"/>
			<point x="871" y="362" type="curve" smooth="yes"/>
			<point x="871" y="467"/>
			<point x="818" y="538"/>
			<point x="693" y="538" type="curve" smooth="yes"/>
			<point x="628" y="538"/>
			<point x="583" y="518"/>
			<point x="534" y="490" type="curve"/>
			<point x="499" y="522"/>
			<point x="460" y="538"/>
			<point x="397" y="538" type="curve" smooth="yes"/>
			<point x="291" y="538"/>
			<point x="237" y="516"/>
			<point x="191" y="502" type="curve"/>
		</contour>
	</outline>
</glyph>
<glyph name="uni04B2" format="2">
	<unicode hex="04B2"/>
	<advance width="722"/>
	<outline>
		<contour>
			<point x="535" y="0" type="line"/>
			<point x="487" y="0" type="line"/>
			<point x="473" y="43"/>
			<point x="451" y="109"/>
			<point x="429" y="166"/>
			<point x="407" y="217"/>
			<point x="394" y="245" type="qcurve"/>
			<point x="193" y="0" type="line"/>
			<point x="15" y="0" type="line"/>
			<point x="330" y="377" type="line"/>
			<point x="189" y="693" type="line"/>
			<point x="361" y="693" type="line"/>
			<point x="444" y="479" type="line"/>
			<point x="489" y="533"/>
			<point x="573" y="644"/>
			<point x="608" y="693" type="qcurve"/>
			<point x="779" y="693" type="line"/>
			<point x="750" y="652"/>
			<point x="685" y="565"/>
			<point x="616" y="479"/>
			<point x="546" y="395"/>
			<point x="513" y="358" type="qcurve"/>
			<point x="541" y="296"/>
			<point x="587" y="189"/>
			<point x="608" y="132" type="qcurve"/>
			<point x="716" y="132" type="line"/>
			<point x="640" y="-185" type="line"/>
			<point x="490" y="-185" type="line"/>
		</contour>
	</outline>
</glyph>
<glyph name="uni04B6" format="2">
	<unicode hex="04B6"/>
	<advance width="730"/>
	<outline>
		<contour>
			<point x="366" y="693" type="line"/>
			<point x="210" y="693" type="line"/>
			<point x="162" y="495" type="line" smooth="yes"/>
			<point x="154" y="462"/>
			<point x="150" y="432"/>
			<point x="150" y="406" type="curve" smooth="yes"/>
			<point x="150" y="270"/>
			<point x="250" y="217"/>
			<point x="363" y="217" type="curve" smooth="yes"/>
			<point x="400" y="217"/>
			<point x="437" y="222"/>
			<point x="473" y="232" type="curve"/>
			<point x="417" y="0" type="line"/>
			<point x="543" y="0" type="line"/>
			<point x="498" y="-185" type="line"/>
			<point x="648" y="-185" type="line"/>
			<point x="724" y="132" type="line"/>
			<point x="605" y="132" type="line"/>
			<point x="740" y="693" type="line"/>
			<point x="584" y="693" type="line"/>
			<point x="505" y="364" type="line"/>
			<point x="478" y="357"/>
			<point x="443" y="349"/>
			<point x="408" y="349" type="curve" smooth="yes"/>
			<point x="356" y="349"/>
			<point x="309" y="368"/>
			<point x="309" y="432" type="curve" smooth="yes"/>
			<point x="309" y="447"/>
			<point x="312" y="466"/>
			<point x="317" y="489" type="curve" smooth="yes"/>
		</contour>
	</outline>
</glyph>
<glyph name="uni04C5" format="2">
	<unicode hex="04C5"/>
	<advance width="761"/>
	<outline>
		<contour>
			<point x="615" y="561" type="line"/>
			<point x="480" y="0" type="line"/>
			<point x="569" y="0" type="line"/>
			<point x="546" y="-56"/>
			<point x="510" y="-91"/>
			<point x="479" y="-119" type="curve"/>
			<point x="562" y="-189" type="line"/>
			<point x="683" y="-97"/>
			<point x="737" y="4"/>
			<point x="758" y="132" type="curve"/>
			<point x="667" y="132" type="line"/>
			<point x="802" y="693" type="line"/>
			<point x="349" y="693" type="line"/>
			<point x="281" y="413"/>
			<point x="239" y="138"/>
			<point x="40" y="122" type="curve"/>
			<point x="55" y="-14" type="line"/>
			<point x="310" y="2"/>
			<point x="377" y="190"/>
			<point x="465" y="561" type="curve"/>
		</contour>
	</outline>
</glyph>
<glyph name="uni04C6" format="2">
	<unicode hex="04C6"/>
	<advance width="641"/>
	<outline>
		<contour>
			<point x="486" y="404" type="line"/>
			<point x="389" y="0" type="line"/>
			<point x="471" y="0" type="line"/>
			<point x="448" y="-43"/>
			<point x="428" y="-64"/>
			<point x="387" y="-96" type="curve"/>
			<point x="470" y="-166" type="line"/>
			<point x="569" y="-94"/>
			<point x="625" y="-7"/>
			<point x="644" y="122" type="curve"/>
			<point x="567" y="122" type="line"/>
			<point x="665" y="526" type="line"/>
			<point x="270" y="526" type="line"/>
			<point x="247" y="418" type="line" smooth="yes"/>
			<point x="228" y="331"/>
			<point x="213" y="246"/>
			<point x="176" y="187" type="curve" smooth="yes"/>
			<point x="149" y="144"/>
			<point x="110" y="118"/>
			<point x="50" y="115" type="curve"/>
			<point x="50" y="-9" type="line"/>
			<point x="269" y="2"/>
			<point x="309" y="124"/>
			<point x="384" y="404" type="curve"/>
		</contour>
	</outline>
</glyph>
<glyph name="uni04CE" format="2">
	<unicode hex="04CE"/>
	<advance width="763"/>
	<outline>
		<contour>
			<point x="324" y="62" type="line"/>
			<point x="423" y="62" type="line"/>
			<point x="589" y="309" type="line"/>
			<point x="570" y="213"/>
			<point x="541" y="95"/>
			<point x="517" y="0" type="curve"/>
			<point x="593" y="0" type="line"/>
			<point x="570" y="-43"/>
			<point x="550" y="-64"/>
			<point x="509" y="-96" type="curve"/>
			<point x="592" y="-166" type="line"/>
			<point x="691" y="-94"/>
			<point x="747" y="-7"/>
			<point x="766" y="122" type="curve"/>
			<point x="689" y="122" type="line"/>
			<point x="716" y="267"/>
			<point x="727" y="409"/>
			<point x="738" y="526" type="curve"/>
			<point x="615" y="526" type="line"/>
			<point x="553" y="442"/>
			<point x="490" y="352"/>
			<point x="402" y="214" type="curve"/>
			<point x="378" y="344"/>
			<point x="365" y="425"/>
			<point x="341" y="526" type="curve"/>
			<point x="218" y="526" type="line"/>
			<point x="165" y="382"/>
			<point x="90" y="150"/>
			<point x="50" y="0" type="curve"/>
			<point x="189" y="0" type="line"/>
			<point x="213" y="92"/>
			<point x="248" y="221"/>
			<point x="277" y="313" type="curve"/>
		</contour>
	</outline>
</glyph>
<glyph name="uni04D9" format="2">
	<unicode hex="04D9"/>
	<advance width="530"/>
	<outline>
		<contour>
			<point x="568" y="315" type="qcurve"/>
			<point x="568" y="251"/>
			<point x="523" y="131"/>
			<point x="440" y="38"/>
			<point x="324" y="-19"/>
			<point x="253" y="-19" type="qcurve"/>
			<point x="218" y="-19"/>
			<point x="158" y="1"/>
			<point x="113" y="39"/>
			<point x="88" y="94"/>
			<point x="88" y="129" type="qcurve"/>
			<point x="88" y="185"/>
			<point x="138" y="263"/>
			<point x="227" y="312"/>
			<point x="349" y="334"/>
			<point x="421" y="334" type="qcurve"/>
			<point x="414" y="376"/>
			<point x="367" y="411"/>
			<point x="316" y="411" type="qcurve"/>
			<point x="284" y="411"/>
			<point x="218" y="400"/>
			<point x="189" y="389" type="qcurve"/>
			<point x="178" y="506" type="line"/>
			<point x="206" y="517"/>
			<point x="293" y="535"/>
			<point x="344" y="535" type="qcurve"/>
			<point x="405" y="535"/>
			<point x="491" y="500"/>
			<point x="544" y="440"/>
			<point x="568" y="360"/>
		</contour>
		<contour>
			<point x="277" y="99" type="qcurve"/>
			<point x="328" y="99"/>
			<point x="405" y="172"/>
			<point x="417" y="232" type="qcurve"/>
			<point x="355" y="230"/>
			<point x="279" y="213"/>
			<point x="237" y="189"/>
			<point x="223" y="160"/>
			<point x="223" y="147" type="qcurve"/>
			<point x="223" y="99"/>
		</contour>
	</outline>
</glyph>
<glyph name="uni04F7" format="2">
	<unicode hex="04F7"/>
	<advance width="483"/>
	<outline>
		<contour>
			<point x="294" y="107" type="curve" smooth="yes"/>
			<point x="247" y="107"/>
			<point x="226" y="114"/>
			<point x="226" y="135" type="curve" smooth="yes"/>
			<point x="226" y="166"/>
			<point x="257" y="183"/>
			<point x="332" y="208" type="curve" smooth="yes"/>
			<point x="435" y="242"/>
			<point x="532" y="290"/>
			<point x="532" y="417" type="curve" smooth="yes"/>
			<point x="532" y="493"/>
			<point x="471" y="540"/>
			<point x="360" y="540" type="curve" smooth="yes"/>
			<point x="296" y="540"/>
			<point x="231" y="526"/>
			<point x="192" y="513" type="curve"/>
			<point x="197" y="397" type="line"/>
			<point x="236" y="409"/>
			<point x="269" y="420"/>
			<point x="320" y="420" type="curve" smooth="yes"/>
			<point x="361" y="420"/>
			<point x="382" y="410"/>
			<point x="382" y="390" type="curve" smooth="yes"/>
			<point x="382" y="365"/>
			<point x="367" y="350"/>
			<point x="310" y="329" type="curve" smooth="yes"/>
			<point x="220" y="297" type="line" smooth="yes"/>
			<point x="129" y="265"/>
			<point x="80" y="192"/>
			<point x="80" y="125" type="curve" smooth="yes"/>
			<point x="80" y="52"/>
			<point x="138" y="-14"/>
			<point x="266" y="-14" type="curve" smooth="yes"/>
			<point x="285" y="-14"/>
			<point x="303" y="-13"/>
			<point x="322" y="-10" type="curve"/>
			<point x="285" y="-150" type="line"/>
			<point x="412" y="-150" type="line"/>
			<point x="484" y="131" type="line"/>
			<point x="429" y="110"/>
			<point x="345" y="107"/>
		</contour>
	</outline>
</glyph>
<glyph name="uni1FCF" format="2">
	<unicode hex="1FCF"/>
	<advance width="382"/>
	<outline>
		<contour>
			<point x="285" y="582" type="line"/>
			<point x="377" y="617"/>
			<point x="411" y="667"/>
			<point x="411" y="710" type="curve" smooth="yes"/>
			<point x="411" y="751"/>
			<point x="381" y="769"/>
			<point x="350" y="769" type="curve" smooth="yes"/>
			<point x="319" y="769"/>
			<point x="289" y="751"/>
			<point x="289" y="712" type="curve" smooth="yes"/>
			<point x="289" y="693"/>
			<point x="296" y="674"/>
			<point x="319" y="662" type="curve"/>
			<point x="298" y="642"/>
			<point x="284" y="633"/>
			<point x="260" y="618" type="curve"/>
		</contour>
		<contour>
			<point x="512" y="764" type="line"/>
			<point x="513" y="773"/>
			<point x="514" y="783"/>
			<point x="514" y="792" type="curve" smooth="yes"/>
			<point x="514" y="880"/>
			<point x="447" y="922"/>
			<point x="376" y="922" type="curve" smooth="yes"/>
			<point x="293" y="922"/>
			<point x="203" y="868"/>
			<point x="198" y="764" type="curve"/>
			<point x="275" y="764" type="line"/>
			<point x="290" y="820"/>
			<point x="331" y="837"/>
			<point x="370" y="837" type="curve" smooth="yes"/>
			<point x="411" y="837"/>
			<point x="436" y="814"/>
			<point x="436" y="779" type="curve" smooth="yes"/>
			<point x="436" y="772"/>
			<point x="436" y="767"/>
			<point x="435" y="764" type="curve"/>
		</contour>
	</outline>
</glyph>
<glyph name="uni1FEE" format="2">
	<unicode hex="1FEE"/>
	<advance width="536"/>
	<outline>
		<contour>
			<point x="332" y="686" type="qcurve"/>
			<point x="332" y="671"/>
			<point x="321" y="641"/>
			<point x="300" y="618"/>
			<point x="270" y="604"/>
			<point x="251" y="604" type="qcurve"/>
			<point x="222" y="604"/>
			<point x="184" y="639"/>
			<point x="184" y="669" type="qcurve"/>
			<point x="184" y="707"/>
			<point x="234" y="751"/>
			<point x="266" y="751" type="qcurve"/>
			<point x="294" y="751"/>
			<point x="332" y="717"/>
		</contour>
		<contour>
			<point x="658" y="686" type="qcurve"/>
			<point x="658" y="671"/>
			<point x="647" y="641"/>
			<point x="626" y="618"/>
			<point x="596" y="604"/>
			<point x="577" y="604" type="qcurve"/>
			<point x="548" y="604"/>
			<point x="510" y="639"/>
			<point x="510" y="669" type="qcurve"/>
			<point x="510" y="708"/>
			<point x="561" y="751"/>
			<point x="592" y="751" type="qcurve"/>
			<point x="620" y="751"/>
			<point x="658" y="717"/>
		</contour>
		<contour>
			<point x="520" y="747" type="line"/>
			<point x="392" y="583" type="line"/>
			<point x="335" y="622" type="line"/>
			<point x="451" y="809" type="line"/>
		</contour>
	</outline>
</glyph>
<glyph name="uni1FFE" format="2">
	<unicode hex="1FFE"/>
	<advance width="367"/>
	<outline>
		<contour>
			<point x="401" y="625" type="line"/>
			<point x="378" y="650"/>
			<point x="358" y="675"/>
			<point x="346" y="702" type="curve"/>
			<point x="382" y="713"/>
			<point x="403" y="737"/>
			<point x="403" y="768" type="curve" smooth="yes"/>
			<point x="403" y="797"/>
			<point x="383" y="831"/>
			<point x="335" y="831" type="curve" smooth="yes"/>
			<point x="286" y="831"/>
			<point x="255" y="796"/>
			<point x="255" y="749" type="curve" smooth="yes"/>
			<point x="255" y="700"/>
			<point x="286" y="642"/>
			<point x="355" y="582" type="curve"/>
		</contour>
	</outline>
</glyph>
<glyph name="emdash" format="2">
	<unicode hex="2014"/>
	<advance width="1008"/>
	<outline>
		<contour>
			<point x="60" y="237" type="line"/>
			<point x="1059" y="237" type="line"/>
			<point x="1088" y="361" type="line"/>
			<point x="88" y="361" type="line"/>
		</contour>
	</outline>
</glyph>
<glyph name="afii00208" format="2">
	<unicode hex="2015"/>
	<advance width="988"/>
	<outline>
		<contour>
			<point x="50" y="237" type="line"/>
			<point x="1049" y="237" type="line"/>
			<point x="1078" y="361" type="line"/>
			<point x="78" y="361" type="line"/>
		</contour>
	</outline>
</glyph>
<glyph name="daggerdbl" format="2">
	<unicode hex="2021"/>
	<advance width="487"/>
	<outline>
		<contour>
			<point x="324" y="110" type="line"/>
			<point x="306" y="41"/>
			<point x="268" y="-79"/>
			<point x="243" y="-145" type="qcurve"/>
			<point x="160" y="-145" type="line"/>
			<point x="166" y="-81"/>
			<point x="185" y="41"/>
			<point x="201" y="110" type="qcurve"/>
			<point x="60" y="110" type="line"/>
			<point x="89" y="225" type="line"/>
			<point x="229" y="225" type="line"/>
			<point x="265" y="376" type="line"/>
			<point x="123" y="376" type="line"/>
			<point x="153" y="491" type="line"/>
			<point x="293" y="491" type="line"/>
			<point x="341" y="693" type="line"/>
			<point x="464" y="693" type="line"/>
			<point x="416" y="491" type="line"/>
			<point x="557" y="491" type="line"/>
			<point x="527" y="376" type="line"/>
			<point x="388" y="376" type="line"/>
			<point x="352" y="225" type="line"/>
			<point x="493" y="225" type="line"/>
			<point x="463" y="110" type="line"/>
		</contour>
	</outline>
</glyph>
<glyph name="fraction" format="2">
	<unicode hex="2044"/>
	<advance width="152"/>
	<outline>
		<contour>
			<point x="270" y="693" type="line"/>
			<point x="-253" y="0" type="line"/>
			<point x="-115" y="0" type="line"/>
			<point x="406" y="693" type="line"/>
		</contour>
	</outline>
</glyph>
<glyph name="eightsuperior" format="2">
	<unicode hex="2078"/>
	<advance width="363"/>
	<outline>
		<contour>
			<point x="456" y="617" type="curve" smooth="yes"/>
			<point x="456" y="677"/>
			<point x="393" y="709"/>
			<point x="324" y="709" type="curve" smooth="yes"/>
			<point x="244" y="709"/>
			<point x="156" y="667"/>
			<point x="156" y="583" type="curve" smooth="yes"/>
			<point x="156" y="556"/>
			<point x="164" y="532"/>
			<point x="195" y="511" type="curve"/>
			<point x="130" y="484"/>
			<point x="103" y="440"/>
			<point x="103" y="392" type="curve" smooth="yes"/>
			<point x="103" y="325"/>
			<point x="171" y="293"/>
			<point x="245" y="293" type="curve" smooth="yes"/>
			<point x="330" y="293"/>
			<point x="422" y="338"/>
			<point x="422" y="428" type="curve" smooth="yes"/>
			<point x="422" y="457"/>
			<point x="411" y="484"/>
			<point x="376" y="505" type="curve"/>
			<point x="431" y="530"/>
			<point x="456" y="572"/>
		</contour>
		<contour>
			<point x="274" y="470" type="line"/>
			<point x="307" y="459"/>
			<point x="324" y="444"/>
			<point x="324" y="423" type="curve" smooth="yes"/>
			<point x="324" y="396"/>
			<point x="296" y="372"/>
			<point x="253" y="372" type="curve" smooth="yes"/>
			<point x="214" y="372"/>
			<point x="198" y="388"/>
			<point x="198" y="408" type="curve" smooth="yes"/>
			<point x="198" y="431"/>
			<point x="220" y="461"/>
			<point x="255" y="476" type="curve"/>
		</contour>
		<contour>
			<point x="249" y="588" type="curve" smooth="yes"/>
			<point x="249" y="612"/>
			<point x="274" y="633"/>
			<point x="313" y="633" type="curve" smooth="yes"/>
			<point x="348" y="633"/>
			<point x="362" y="619"/>
			<point x="362" y="600" type="curve" smooth="yes"/>
			<point x="362" y="577"/>
			<point x="340" y="550"/>
			<point x="309" y="535" type="curve"/>
			<point x="303" y="538" type="line"/>
			<point x="267" y="551"/>
			<point x="249" y="567"/>
		</contour>
	</outline>
</glyph>
<glyph name="ninesuperior" format="2">
	<unicode hex="2079"/>
	<advance width="363"/>
	<outline>
		<contour>
			<point x="128" y="385" type="line"/>
			<point x="202" y="386"/>
			<point x="294" y="417"/>
			<point x="323" y="452" type="qcurve"/>
			<point x="293" y="444"/>
			<point x="262" y="444" type="qcurve"/>
			<point x="241" y="444"/>
			<point x="202" y="455"/>
			<point x="172" y="480"/>
			<point x="153" y="524"/>
			<point x="153" y="557" type="qcurve"/>
			<point x="153" y="593"/>
			<point x="182" y="650"/>
			<point x="229" y="689"/>
			<point x="288" y="709"/>
			<point x="318" y="709" type="qcurve"/>
			<point x="345" y="709"/>
			<point x="394" y="693"/>
			<point x="432" y="660"/>
			<point x="455" y="608"/>
			<point x="455" y="573" type="qcurve"/>
			<point x="455" y="520"/>
			<point x="418" y="422"/>
			<point x="337" y="346"/>
			<point x="210" y="300"/>
			<point x="120" y="300" type="qcurve"/>
		</contour>
		<contour>
			<point x="317" y="623" type="qcurve"/>
			<point x="285" y="623"/>
			<point x="253" y="584"/>
			<point x="253" y="562" type="qcurve"/>
			<point x="253" y="544"/>
			<point x="276" y="516"/>
			<point x="301" y="516" type="qcurve"/>
			<point x="312" y="516"/>
			<point x="338" y="521"/>
			<point x="351" y="525" type="qcurve"/>
			<point x="355" y="536"/>
			<point x="360" y="562"/>
			<point x="360" y="573" type="qcurve"/>
			<point x="360" y="593"/>
			<point x="341" y="623"/>
		</contour>
	</outline>
</glyph>
<glyph name="uni2126" format="2">
	<unicode hex="2126"/>
	<advance width="807"/>
	<outline>
		<contour>
			<point x="657" y="129" type="line"/>
			<point x="764" y="207"/>
			<point x="827" y="338"/>
			<point x="827" y="455" type="curve" smooth="yes"/>
			<point x="827" y="625"/>
			<point x="691" y="709"/>
			<point x="542" y="709" type="curve" smooth="yes"/>
			<point x="357" y="709"/>
			<point x="150" y="580"/>
			<point x="150" y="336" type="curve" smooth="yes"/>
			<point x="150" y="264"/>
			<point x="169" y="193"/>
			<point x="212" y="129" type="curve"/>
			<point x="91" y="129" type="line"/>
			<point x="60" y="0" type="line"/>
			<point x="335" y="0" type="line"/>
			<point x="363" y="116" type="line"/>
			<point x="318" y="161"/>
			<point x="297" y="227"/>
			<point x="297" y="295" type="curve" smooth="yes"/>
			<point x="297" y="485"/>
			<point x="418" y="573"/>
			<point x="522" y="573" type="curve" smooth="yes"/>
			<point x="599" y="573"/>
			<point x="668" y="524"/>
			<point x="668" y="432" type="curve" smooth="yes"/>
			<point x="668" y="319"/>
			<point x="582" y="170"/>
			<point x="485" y="116" type="curve"/>
			<point x="457" y="0" type="line"/>
			<point x="744" y="0" type="line"/>
			<point x="775" y="129" type="line"/>
		</contour>
	</outline>
</glyph>
<glyph name="approxequal" format="2">
	<unicode hex="2248"/>
	<advance width="568"/>
	<outline>
		<contour>
			<point x="458" y="314" type="qcurve"/>
			<point x="425" y="314"/>
			<point x="376" y="338"/>
			<point x="336" y="366"/>
			<point x="299" y="390"/>
			<point x="277" y="390" type="qcurve"/>
			<point x="268" y="390"/>
			<point x="253" y="386"/>
			<point x="237" y="371"/>
			<point x="219" y="342"/>
			<point x="207" y="317" type="qcurve"/>
			<point x="112" y="345" type="line"/>
			<point x="123" y="379"/>
			<point x="156" y="442"/>
			<point x="202" y="489"/>
			<point x="263" y="517"/>
			<point x="302" y="517" type="qcurve"/>
			<point x="335" y="517"/>
			<point x="384" y="493"/>
			<point x="424" y="465"/>
			<point x="461" y="441"/>
			<point x="483" y="441" type="qcurve"/>
			<point x="492" y="441"/>
			<point x="507" y="445"/>
			<point x="523" y="460"/>
			<point x="541" y="489"/>
			<point x="553" y="514" type="qcurve"/>
			<point x="649" y="490" type="line"/>
			<point x="635" y="452"/>
			<point x="601" y="388"/>
			<point x="556" y="341"/>
			<point x="497" y="314"/>
		</contour>
		<contour>
			<point x="399" y="71" type="qcurve"/>
			<point x="366" y="71"/>
			<point x="317" y="95"/>
			<point x="277" y="123"/>
			<point x="240" y="147"/>
			<point x="218" y="147" type="qcurve"/>
			<point x="209" y="147"/>
			<point x="194" y="143"/>
			<point x="178" y="128"/>
			<point x="160" y="99"/>
			<point x="148" y="74" type="qcurve"/>
			<point x="53" y="102" type="line"/>
			<point x="64" y="136"/>
			<point x="97" y="199"/>
			<point x="143" y="246"/>
			<point x="204" y="274"/>
			<point x="243" y="274" type="qcurve"/>
			<point x="276" y="274"/>
			<point x="325" y="250"/>
			<point x="365" y="222"/>
			<point x="402" y="198"/>
			<point x="424" y="198" type="qcurve"/>
			<point x="433" y="198"/>
			<point x="448" y="202"/>
			<point x="464" y="217"/>
			<point x="482" y="246"/>
			<point x="494" y="271" type="qcurve"/>
			<point x="590" y="247" type="line"/>
			<point x="576" y="209"/>
			<point x="542" y="145"/>
			<point x="497" y="98"/>
			<point x="438" y="71"/>
		</contour>
	</outline>
</glyph>
<glyph name="notequal" format="2">
	<unicode hex="2260"/>
	<advance width="568"/>
	<outline>
		<contour>
			<point x="127" y="345" type="line"/>
			<point x="334" y="345" type="line"/>
			<point x="261" y="251" type="line"/>
			<point x="104" y="251" type="line"/>
			<point x="74" y="126" type="line"/>
			<point x="166" y="126" type="line"/>
			<point x="102" y="42" type="line"/>
			<point x="175" y="-4" type="line"/>
			<point x="274" y="126" type="line"/>
			<point x="544" y="126" type="line"/>
			<point x="574" y="251" type="line"/>
			<point x="370" y="251" type="line"/>
			<point x="442" y="345" type="line"/>
			<point x="597" y="345" type="line"/>
			<point x="627" y="470" type="line"/>
			<point x="538" y="470" type="line"/>
			<point x="601" y="552" type="line"/>
			<point x="528" y="598" type="line"/>
			<point x="429" y="470" type="line"/>
			<point x="157" y="470" type="line"/>
		</contour>
	</outline>
</glyph>
<glyph name="uniE0FF" format="2">
	<unicode hex="E0FF"/>
	<advance width="782"/>
	<outline>
		<contour>
			<point x="854" y="346" type="curve" smooth="yes"/>
			<point x="854" y="146"/>
			<point x="694" y="-15"/>
			<point x="492" y="-15" type="curve" smooth="yes"/>
			<point x="292" y="-15"/>
			<point x="130" y="146"/>
			<point x="130" y="346" type="curve" smooth="yes"/>
			<point x="130" y="549"/>
			<point x="292" y="709"/>
			<point x="492" y="709" type="curve" smooth="yes"/>
			<point x="694" y="709"/>
			<point x="854" y="549"/>
		</contour>
		<contour>
			<point x="244" y="395" type="curve" smooth="yes"/>
			<point x="219" y="395"/>
			<point x="197" y="373"/>
			<point x="197" y="346" type="curve" smooth="yes"/>
			<point x="197" y="320"/>
			<point x="219" y="299"/>
			<point x="244" y="299" type="curve" smooth="yes"/>
			<point x="270" y="299"/>
			<point x="293" y="320"/>
			<point x="293" y="346" type="curve" smooth="yes"/>
			<point x="293" y="373"/>
			<point x="270" y="395"/>
		</contour>
		<contour>
			<point x="664" y="135" type="curve" smooth="yes"/>
			<point x="664" y="165"/>
			<point x="638" y="180"/>
			<point x="617" y="180" type="curve" smooth="yes"/>
			<point x="588" y="180"/>
			<point x="568" y="157"/>
			<point x="568" y="131" type="curve" smooth="yes"/>
			<point x="568" y="103"/>
			<point x="591" y="84"/>
			<point x="616" y="84" type="curve" smooth="yes"/>
			<point x="643" y="84"/>
			<point x="664" y="109"/>
		</contour>
		<contour>
			<point x="350" y="346" type="curve" smooth="yes"/>
			<point x="350" y="395"/>
			<point x="374" y="437"/>
			<point x="412" y="464" type="curve"/>
			<point x="374" y="524" type="line"/>
			<point x="334" y="494"/>
			<point x="301" y="451"/>
			<point x="288" y="399" type="curve"/>
			<point x="303" y="389"/>
			<point x="314" y="368"/>
			<point x="314" y="346" type="curve" smooth="yes"/>
			<point x="314" y="326"/>
			<point x="303" y="306"/>
			<point x="288" y="294" type="curve"/>
			<point x="301" y="244"/>
			<point x="334" y="202"/>
			<point x="374" y="170" type="curve"/>
			<point x="412" y="232" type="line"/>
			<point x="374" y="256"/>
			<point x="350" y="300"/>
		</contour>
		<contour>
			<point x="399" y="536" type="curve"/>
			<point x="432" y="476" type="line"/>
			<point x="450" y="485"/>
			<point x="470" y="490"/>
			<point x="492" y="490" type="curve" smooth="yes"/>
			<point x="567" y="490"/>
			<point x="627" y="433"/>
			<point x="632" y="362" type="curve"/>
			<point x="702" y="362" type="line"/>
			<point x="698" y="413"/>
			<point x="675" y="462"/>
			<point x="639" y="496" type="curve"/>
			<point x="630" y="495"/>
			<point x="623" y="494"/>
			<point x="617" y="494" type="curve" smooth="yes"/>
			<point x="586" y="494"/>
			<point x="552" y="517"/>
			<point x="550" y="550" type="curve"/>
			<point x="529" y="556"/>
			<point x="512" y="558"/>
			<point x="492" y="558" type="curve" smooth="yes"/>
			<point x="459" y="558"/>
			<point x="427" y="550"/>
		</contour>
		<contour>
			<point x="432" y="217" type="curve"/>
			<point x="399" y="159" type="line"/>
			<point x="427" y="144"/>
			<point x="459" y="138"/>
			<point x="492" y="138" type="curve" smooth="yes"/>
			<point x="512" y="138"/>
			<point x="529" y="140"/>
			<point x="550" y="144" type="curve"/>
			<point x="552" y="178"/>
			<point x="586" y="201"/>
			<point x="617" y="201" type="curve" smooth="yes"/>
			<point x="624" y="201"/>
			<point x="630" y="200"/>
			<point x="639" y="199" type="curve"/>
			<point x="675" y="233"/>
			<point x="698" y="282"/>
			<point x="702" y="336" type="curve"/>
			<point x="632" y="336" type="line"/>
			<point x="627" y="262"/>
			<point x="567" y="205"/>
			<point x="492" y="205" type="curve" smooth="yes"/>
			<point x="470" y="205"/>
			<point x="450" y="210"/>
		</contour>
		<contour>
			<point x="617" y="513" type="curve" smooth="yes"/>
			<point x="638" y="513"/>
			<point x="664" y="530"/>
			<point x="664" y="559" type="curve" smooth="yes"/>
			<point x="664" y="582"/>
			<point x="645" y="609"/>
			<point x="616" y="609" type="curve" smooth="yes"/>
			<point x="592" y="609"/>
			<point x="568" y="592"/>
			<point x="568" y="560" type="curve" smooth="yes"/>
			<point x="568" y="535"/>
			<point x="591" y="513"/>
		</contour>
	</outline>
	<guideline y="750"/>
</glyph>
<glyph name="afii10066.locl" format="2">
	<advance width="574"/>
	<outline>
		<contour>
			<point x="365" y="411" type="curve"/>
			<point x="424" y="354"/>
			<point x="443" y="309"/>
			<point x="443" y="258" type="curve" smooth="yes"/>
			<point x="443" y="165"/>
			<point x="379" y="113"/>
			<point x="320" y="113" type="curve" smooth="yes"/>
			<point x="275" y="113"/>
			<point x="234" y="144"/>
			<point x="234" y="215" type="curve" smooth="yes"/>
			<point x="234" y="290"/>
			<point x="276" y="363"/>
		</contour>
		<contour>
			<point x="592" y="276" type="curve" smooth="yes"/>
			<point x="592" y="493"/>
			<point x="380" y="531"/>
			<point x="380" y="609" type="curve" smooth="yes"/>
			<point x="380" y="650"/>
			<point x="408" y="654"/>
			<point x="460" y="654" type="curve" smooth="yes"/>
			<point x="540" y="654"/>
			<point x="573" y="657"/>
			<point x="604" y="662" type="curve"/>
			<point x="624" y="776" type="line"/>
			<point x="569" y="771"/>
			<point x="489" y="771"/>
			<point x="446" y="771" type="curve" smooth="yes"/>
			<point x="293" y="771"/>
			<point x="238" y="693"/>
			<point x="238" y="606" type="curve" smooth="yes"/>
			<point x="238" y="566"/>
			<point x="254" y="527"/>
			<point x="285" y="487" type="curve"/>
			<point x="169" y="426"/>
			<point x="90" y="328"/>
			<point x="90" y="199" type="curve" smooth="yes"/>
			<point x="90" y="52"/>
			<point x="189" y="-14"/>
			<point x="299" y="-14" type="curve" smooth="yes"/>
			<point x="443" y="-14"/>
			<point x="592" y="92"/>
		</contour>
	</outline>
</glyph>
<glyph name="caron.alt" format="2">
	<advance width="208"/>
	<outline>
		<contour>
			<point x="355" y="776" type="line"/>
			<point x="262" y="532" type="line"/>
			<point x="174" y="532" type="line"/>
			<point x="229" y="776" type="line"/>
		</contour>
	</outline>
</glyph>
<glyph name="dieresis_breve.cap" format="2">
	<advance width="458"/>
	<outline>
		<contour>
			<point x="531" y="732" type="curve" smooth="yes"/>
			<point x="563" y="732"/>
			<point x="599" y="762"/>
			<point x="599" y="801" type="curve" smooth="yes"/>
			<point x="599" y="836"/>
			<point x="574" y="858"/>
			<point x="542" y="858" type="curve" smooth="yes"/>
			<point x="509" y="858"/>
			<point x="475" y="830"/>
			<point x="475" y="787" type="curve" smooth="yes"/>
			<point x="475" y="754"/>
			<point x="500" y="732"/>
		</contour>
		<contour>
			<point x="266" y="732" type="curve" smooth="yes"/>
			<point x="298" y="732"/>
			<point x="334" y="762"/>
			<point x="334" y="801" type="curve" smooth="yes"/>
			<point x="334" y="836"/>
			<point x="309" y="858"/>
			<point x="277" y="858" type="curve" smooth="yes"/>
			<point x="244" y="858"/>
			<point x="210" y="830"/>
			<point x="210" y="787" type="curve" smooth="yes"/>
			<point x="210" y="754"/>
			<point x="235" y="732"/>
		</contour>
		<contour>
			<point x="395" y="799" type="line"/>
			<point x="532" y="904" type="line"/>
			<point x="498" y="962" type="line"/>
			<point x="407" y="903" type="line"/>
			<point x="344" y="962" type="line"/>
			<point x="293" y="907" type="line"/>
		</contour>
	</outline>
</glyph>
<glyph name="tilde_macron" format="2">
	<advance width="351"/>
	<outline>
		<contour>
			<point x="219" y="740" type="line"/>
			<point x="489" y="740" type="line"/>
			<point x="508" y="820" type="line"/>
			<point x="238" y="820" type="line"/>
		</contour>
		<contour>
			<point x="488" y="680" type="line"/>
			<point x="459" y="624"/>
			<point x="423" y="593"/>
			<point x="372" y="593" type="curve" smooth="yes"/>
			<point x="330" y="593"/>
			<point x="307" y="622"/>
			<point x="280" y="622" type="curve" smooth="yes"/>
			<point x="265" y="622"/>
			<point x="248" y="613"/>
			<point x="229" y="585" type="curve"/>
			<point x="175" y="621" type="line"/>
			<point x="204" y="677"/>
			<point x="240" y="708"/>
			<point x="291" y="708" type="curve" smooth="yes"/>
			<point x="333" y="708"/>
			<point x="356" y="679"/>
			<point x="383" y="679" type="curve" smooth="yes"/>
			<point x="398" y="679"/>
			<point x="415" y="688"/>
			<point x="434" y="716" type="curve"/>
		</contour>
	</outline>
	<guideline y="625"/>
	<guideline x="42" y="0" angle="103.5"/>
	<guideline x="312" y="0" angle="103.5"/>
</glyph>
